<mxfile host="Electron" modified="2024-04-17T05:05:30.001Z" agent="Mozilla/5.0 (Windows NT 10.0; Win64; x64) AppleWebKit/537.36 (KHTML, like Gecko) draw.io/21.7.5 Chrome/114.0.5735.289 Electron/25.8.1 Safari/537.36" etag="9r32O7HRXx0UpYWHsjKm" version="21.7.5" type="device">
  <diagram name="第 1 页" id="akJ0fcTaUh_Lfy5anjCc">
    <mxGraphModel dx="1953" dy="3730" grid="0" gridSize="10" guides="1" tooltips="1" connect="1" arrows="1" fold="1" page="0" pageScale="1" pageWidth="827" pageHeight="1169" math="0" shadow="0">
      <root>
        <mxCell id="0" />
        <mxCell id="1" parent="0" />
        <mxCell id="FY5eDi_IWiPd35O_f7Xr-10" value="" style="shape=image;verticalLabelPosition=bottom;labelBackgroundColor=default;verticalAlign=top;aspect=fixed;imageAspect=0;image=data:image/svg+xml,PHN2ZyB4bWxuczp4bGluaz0iaHR0cDovL3d3dy53My5vcmcvMTk5OS94bGluayIgeG1sbnM9Imh0dHA6Ly93d3cudzMub3JnLzIwMDAvc3ZnIiBoZWlnaHQ9IjIwMCIgd2lkdGg9IjIwMCIgdmVyc2lvbj0iMS4xIiB2aWV3Qm94PSIwIDAgMTAyNCAxMDI0IiBjbGFzcz0iaWNvbiI+PHBhdGggZD0iTTkyNi43MiA4MjkuNDRxMjguNjcyIDMyLjc2OCAzMS4yMzIgNTcuMzQ0dC0xOC45NDQgNDguMTI4cS0yNC41NzYgMjcuNjQ4LTU0LjI3MiAyNi4xMTJ0LTU3LjM0NC0yNC4wNjRsLTE2NC44NjQtMTU4LjcycS00Ni4wOCAzMC43Mi05OS44NCA0Ny42MTZ0LTExMy4xNTIgMTYuODk2cS04MC44OTYgMC0xNTEuNTUyLTMwLjcydC0xMjMuMzkyLTgzLjQ1Ni04Mi45NDQtMTIzLjM5Mi0zMC4yMDgtMTUxLjU1MnEwLTc5Ljg3MiAzMC4yMDgtMTUwLjUyOHQ4Mi45NDQtMTIzLjM5MiAxMjMuMzkyLTgzLjQ1NiAxNTEuNTUyLTMwLjcyIDE1MS41NTIgMzAuNzIgMTIzLjM5MiA4My40NTYgODMuNDU2IDEyMy4zOTIgMzAuNzIgMTUwLjUyOHEwIDYxLjQ0LTE3LjkyIDExNi43MzZ0LTQ5LjY2NCAxMDEuMzc2cTEzLjMxMiAxNC4zMzYgMzcuMzc2IDM4LjR0NDguMTI4IDQ4LjY0IDQ0LjU0NCA0NC4wMzJ6TTQ0OS41MzYgNzA1LjUzNnE1My4yNDggMCAxMDAuMzUyLTE5Ljk2OHQ4MS45Mi01NC43ODQgNTQuNzg0LTgxLjkyIDE5Ljk2OC0xMDAuMzUyLTE5Ljk2OC0xMDAuMzUyLTU0Ljc4NC04MS45Mi04MS45Mi01NC43ODQtMTAwLjM1Mi0xOS45NjgtOTkuODQgMTkuOTY4LTgxLjQwOCA1NC43ODQtNTUuMjk2IDgxLjkyLTIwLjQ4IDEwMC4zNTIgMjAuNDggMTAwLjM1MiA1NS4yOTYgODEuOTIgODEuNDA4IDU0Ljc4NCA5OS44NCAxOS45Njh6TTUxMiAzODRsMTI4IDAgMCAxMjgtMTI4IDAgMCAxMjgtMTI5LjAyNCAwIDAtMTI4LTEyNi45NzYgMCAwLTEyOCAxMjYuOTc2IDAgMC0xMjggMTI5LjAyNCAwIDAgMTI4eiIvPjwvc3ZnPg==;" parent="1" vertex="1">
          <mxGeometry x="1043" y="-900" width="70" height="70" as="geometry" />
        </mxCell>
        <mxCell id="FY5eDi_IWiPd35O_f7Xr-11" value="" style="rounded=1;whiteSpace=wrap;html=1;arcSize=2;" parent="1" vertex="1">
          <mxGeometry x="620" y="-1120" width="754" height="200" as="geometry" />
        </mxCell>
        <mxCell id="FY5eDi_IWiPd35O_f7Xr-14" value="" style="shape=image;verticalLabelPosition=bottom;labelBackgroundColor=default;verticalAlign=top;aspect=fixed;imageAspect=0;image=data:image/svg+xml,PHN2ZyB4bWxuczp4bGluaz0iaHR0cDovL3d3dy53My5vcmcvMTk5OS94bGluayIgeG1sbnM9Imh0dHA6Ly93d3cudzMub3JnLzIwMDAvc3ZnIiBoZWlnaHQ9IjIwMCIgd2lkdGg9IjIwMCIgdmVyc2lvbj0iMS4xIiB2aWV3Qm94PSIwIDAgMTAyNCAxMDI0IiBjbGFzcz0iaWNvbiI+PHBhdGggZmlsbD0iIzE3QkI3QiIgZD0iTTUxMiA2My42OEMyNjQuNTc2IDYzLjY4IDY0IDI2NC4zODQgNjQgNTEyczIwMC41NzYgNDQ4LjMyIDQ0OCA0NDguMzJTOTYwIDc1OS42MTYgOTYwIDUxMiA3NTkuNDI0IDYzLjY4IDUxMiA2My42OHogbTAgODM2Ljg2NGMtNjMuNDI0IDAtMTIzLjMyOC0xNS4zNi0xNzYuMjU2LTQyLjU2IDAuMjU2LTAuMTkyLTAuODMyLTEuMDI0LTMuOTY4LTIuNDk2LTM1LjItMTYuODMyLTc0LjgxNi03MC45MTItNzYuNzM2LTg3Ljc0NC0xLjg1Ni0xNi44MzItMS44NTYtNDQuOCAxMS4yLTU2IDEzLjEyLTExLjIgMzMuNi0zOS4yMzIgNTkuNzEyLTg0LjAzMiAyNi4xMTItNDQuODY0LTQyLjg4LTU0LjE0NC02MS41MDQtNjEuNjMyLTE4Ljc1Mi03LjQyNC00OC41NzYtNTAuMzY4LTg0LjAzMi01My44MjQtMzUuNDU2LTMuMzkyLTIyLjQgMjUuODU2LTMzLjUzNiAzNS4yLTEwLjQ5NiA4LjcwNC0xNS4xMDQgNy41NTItMjEuNjk2LTMuMi0wLjg5Ni0xMC42MjQtMS40MDgtMjEuMzc2LTEuNDA4LTMyLjI1NiAwLTY0Ljg5NiAxNi0xMjYuMDE2IDQ0LjIyNC0xNzkuODQgOS45Mi02LjQ2NCAxOC45NDQtMTQuNCAxOC45NDQtMTQuNGgxNC45MTJjMS44NTYgMCAxMS40NTYgMTEuMDA4IDAuMTkyIDIwLjM1Mi0xMS4xMzYgOS4yOC0yMC42NzIgNDEuMjggNS42MzIgMzkuMzYgMjYuMzA0LTEuODU2IDYxLjE4NC02LjI3MiA2NC44OTYtMzMuNDcyIDMuNzEyLTI3LjEzNi0xLjQ3Mi0zMi4xMjggMTEuNjQ4LTM3LjY5NiAxMy4xMi01LjU2OCAyNC4yNTYgMS45MiAyMC41NDQgMTguNjg4LTMuNzc2IDE2LjgzMiAwIDM5LjQyNCAxNi43NjggNDMuMDA4IDE2Ljc2OCAzLjY0OCAxMS4yIDIyLjQgMjcuOTY4IDE2Ljc2OCAxNi43NjgtNS41NjggNy40ODgtMzUuNDU2IDIwLjQ4LTUwLjQzMiAxMy4wNTYtMTQuOTEyIDE4LjYyNC0yMi40NjQgMTguNjI0LTQxLjA4OCAwLTE4LjY4OCAxMC4xNzYtMzYuNzM2IDMwLjcyLTQ2LjA4czU4LjgxNi0yLjQ5NiA2OC4xNiAxOS45NjhjOS40MDggMjIuNCAzMy45ODQgNDEuMDg4IDI0LjUxMiA0OC41MTItOS40NzIgNy40ODgtMzAuMDE2IDE2LjgzMi0zNS42NDggMjQuMzItNS41NjggNy40MjQtMTQuOTEyIDEzLjA1Ni0zMS42OCAyNy45NjhzLTM1LjQ1NiA0Mi45NDQtOS4zNDQgNjMuNDg4IDQxLjAyNCAzMS43NDQgNjguOTkyIDMxLjc0NGMyOC4wMzIgMCA1Mi4yODggMjIuNCA2OS4wNTYgMzMuNiAxNi43NjggMTEuMiAyMi4zMzYgMjAuNTQ0IDI4LjAzMiAyOS44MjQgNS41NjggOS4zNDQgMS43OTIgMzMuNiAxMS4xMzYgNTAuNDMyczkuMzQ0IDUyLjI4OCA5LjM0NCA3MC45NzZjMCAxOC42ODggNy40ODggNDQuOCAxMS4yIDYxLjU2OCAzLjc3NiAxNi44MzItNy4yMzIgNTQuNTkyIDEzLjMxMiA1Ni41MTIgMjAuNTQ0IDEuODU2IDI5LjU2OC0xMS43MTIgNTAuMTEyLTUwLjgxNiAyMC40OC0zOS4xNjggMjkuODg4LTM3LjMxMiA0Mi44OC01NC4xNDQgMTMuMTItMTYuNzY4IDE2LjgzMi0zMS43NDQgMTguNjg4LTQ4LjUxMiAxLjg1Ni0xNi44MzIgMjIuNC0xOC42ODggMjIuNC01MC40MzIgMC0zMS43NDQgMC0zMy4wMjQtNy40ODgtNTAuMTEyLTcuNDI0LTE3LjA4OC0xOC42MjQtMTguOTQ0LTE0Ljg0OC0zNS43NzYgMy43MTItMTYuODMyLTMuNzEyLTE2LjgzMiAyMi40LTI5Ljg4OCAyNi4xNzYtMTMuMDU2IDQ0LjczNi0xNC45MTIgNTIuMjI0LTMzLjYgNy40ODgtMTguNjg4IDUuNTY4LTQyLjk0NCA5LjM0NC01NC4xNDQgMy43MTItMTEuMDcyIDMuNzEyLTE2LjI1NiAyMS42MzItMTEuMDA4IDIzLjM2IDQ5LjkyIDM2LjQ4IDEwNS42NjQgMzYuNDggMTY0LjM1MiAwIDIxNC4yNzItMTc0LjE0NCAzODguNTQ0LTM4OC4yMjQgMzg4LjU0NHogbTAgMCIvPjwvc3ZnPg==;points=[[0,0,0,0,0],[0,0.25,0,0,0],[0,0.5,0,0,0],[0,0.75,0,0,0],[0,1,0,0,0],[0.25,1,0,0,0],[0.28,0.1,0,0,0],[0.5,0,0,0,0],[0.5,1,0,0,0],[0.71,0.1,0,0,0],[0.75,1,0,0,0],[1,0,0,0,0],[1,0.25,0,0,0],[1,0.5,0,0,0],[1,0.75,0,0,0],[1,1,0,0,0]];" parent="1" vertex="1">
          <mxGeometry x="932" y="-830" width="130" height="130" as="geometry" />
        </mxCell>
        <mxCell id="FY5eDi_IWiPd35O_f7Xr-18" value="" style="endArrow=none;dashed=1;html=1;dashPattern=1 3;strokeWidth=2;rounded=0;exitX=0;exitY=1;exitDx=0;exitDy=0;entryX=0.28;entryY=0.1;entryDx=0;entryDy=0;entryPerimeter=0;" parent="1" source="FY5eDi_IWiPd35O_f7Xr-11" target="FY5eDi_IWiPd35O_f7Xr-14" edge="1">
          <mxGeometry width="50" height="50" relative="1" as="geometry">
            <mxPoint x="960" y="-950" as="sourcePoint" />
            <mxPoint x="1010" y="-1000" as="targetPoint" />
          </mxGeometry>
        </mxCell>
        <mxCell id="FY5eDi_IWiPd35O_f7Xr-19" value="" style="endArrow=none;dashed=1;html=1;dashPattern=1 3;strokeWidth=2;rounded=0;exitX=1;exitY=1;exitDx=0;exitDy=0;entryX=0.71;entryY=0.1;entryDx=0;entryDy=0;entryPerimeter=0;" parent="1" source="FY5eDi_IWiPd35O_f7Xr-11" target="FY5eDi_IWiPd35O_f7Xr-14" edge="1">
          <mxGeometry width="50" height="50" relative="1" as="geometry">
            <mxPoint x="670" y="-920" as="sourcePoint" />
            <mxPoint x="975" y="-820" as="targetPoint" />
          </mxGeometry>
        </mxCell>
        <mxCell id="FY5eDi_IWiPd35O_f7Xr-23" style="edgeStyle=orthogonalEdgeStyle;rounded=0;orthogonalLoop=1;jettySize=auto;html=1;exitX=1;exitY=0.5;exitDx=0;exitDy=0;" parent="1" source="FY5eDi_IWiPd35O_f7Xr-20" target="FY5eDi_IWiPd35O_f7Xr-21" edge="1">
          <mxGeometry relative="1" as="geometry">
            <Array as="points">
              <mxPoint x="880" y="-1005" />
              <mxPoint x="880" y="-1041" />
            </Array>
          </mxGeometry>
        </mxCell>
        <mxCell id="FY5eDi_IWiPd35O_f7Xr-26" style="edgeStyle=orthogonalEdgeStyle;rounded=0;orthogonalLoop=1;jettySize=auto;html=1;exitX=1;exitY=0.5;exitDx=0;exitDy=0;" parent="1" source="FY5eDi_IWiPd35O_f7Xr-20" target="FY5eDi_IWiPd35O_f7Xr-25" edge="1">
          <mxGeometry relative="1" as="geometry">
            <Array as="points">
              <mxPoint x="880" y="-1005" />
              <mxPoint x="880" y="-965" />
            </Array>
          </mxGeometry>
        </mxCell>
        <mxCell id="FY5eDi_IWiPd35O_f7Xr-20" value="" style="shape=image;verticalLabelPosition=bottom;labelBackgroundColor=default;verticalAlign=top;aspect=fixed;imageAspect=0;image=data:image/svg+xml,PHN2ZyB4bWxuczp4bGluaz0iaHR0cDovL3d3dy53My5vcmcvMTk5OS94bGluayIgeG1sbnM9Imh0dHA6Ly93d3cudzMub3JnLzIwMDAvc3ZnIiBoZWlnaHQ9IjIwMCIgd2lkdGg9IjIwMCIgdmVyc2lvbj0iMS4xIiB2aWV3Qm94PSIwIDAgMTAyNCAxMDI0IiBjbGFzcz0iaWNvbiI+PHBhdGggZmlsbD0iIzEwOEVFOSIgZD0iTTUxMiAwQzIyOS4yMjc1MiAwIDAgMjI5LjIyNzUyIDAgNTEyczIyOS4yMjc1MiA1MTIgNTEyIDUxMiA1MTItMjI5LjIyNzUyIDUxMi01MTJTNzk0Ljc3MjQ4IDAgNTEyIDB6IG0tNS45MzkyIDIzOC4wOGM3NC41Nzc5MiAwIDEzNS4yNDk5MiA2MC42NDY0IDEzNS4yNDk5MiAxMzUuMjI0MzIgMCA3NC41NTc0NC02MC42NzIgMTM1LjIzNDU2LTEzNS4yNDk5MiAxMzUuMjM0NTYtNzQuNTYyNTYgMC0xMzUuMjAzODQtNjAuNjc3MTItMTM1LjIwMzg0LTEzNS4yMzQ1NiAwLTc0LjU3NzkyIDYwLjY0MTI4LTEzNS4yMjQzMiAxMzUuMjAzODQtMTM1LjIyNDMyeiBtLTExLjk3MDU2IDM1My4yMTM0NGgzNi45MzU2OGw5LjYxNTM2IDEwNy43MjQ4LTI2Ljc3MjQ4IDM3LjY3Mjk2LTMwLjY1ODU2LTM3LjQxMTg0IDEwLjg4LTEwNy45ODU5MnogbS04LjQ3ODcyLTUxLjM1ODcyaDUyLjcyMDY0bC0xMi42ODIyNCAzNC4xMTk2OGgtMjcuNDk0NGwtMTIuNTQ0LTM0LjExOTY4eiBtLTIzMS45MzYgMjQ1Ljk4NTI4YzAtMTIxLjA5MzEyIDYyLjYwMjI0LTIxOC43MDU5MiAxNTcuMjU1NjgtMjQ2Ljk2MzJsMTAuNjI5MTIgMjkuMDM1NTJhMjU2LjQxOTg0IDI1Ni40MTk4NCAwIDAgMC0zMi40MDk2IDE0LjQ2OTEybDEyMy4zNDA4IDE5Mi4wOTcyOCAxMTQuNTAzNjgtMTk0LjY3Nzc2YTI1NS4yMTE1MiAyNTUuMjExNTIgMCAwIDAtMjkuMzA2ODgtMTIuNTg0OTZsMTAuMzg4NDgtMjkuMDg2NzJjMTE0Ljk0NCA0MS4wNzc3NiAxNjIuMjQ3NjggMTI1LjYwMzg0IDE2Mi4yNDc2OCAyNDcuNzE1ODRIMjUzLjY3NTUyeiIvPjwvc3ZnPg==;" parent="1" vertex="1">
          <mxGeometry x="790" y="-1030" width="50" height="50" as="geometry" />
        </mxCell>
        <mxCell id="FY5eDi_IWiPd35O_f7Xr-24" style="edgeStyle=orthogonalEdgeStyle;rounded=0;orthogonalLoop=1;jettySize=auto;html=1;" parent="1" source="FY5eDi_IWiPd35O_f7Xr-21" target="FY5eDi_IWiPd35O_f7Xr-22" edge="1">
          <mxGeometry relative="1" as="geometry" />
        </mxCell>
        <mxCell id="FY5eDi_IWiPd35O_f7Xr-21" value="" style="shape=image;verticalLabelPosition=bottom;labelBackgroundColor=default;verticalAlign=top;aspect=fixed;imageAspect=0;image=data:image/svg+xml,PHN2ZyB4bWxuczp4bGluaz0iaHR0cDovL3d3dy53My5vcmcvMTk5OS94bGluayIgeG1sbnM9Imh0dHA6Ly93d3cudzMub3JnLzIwMDAvc3ZnIiBoZWlnaHQ9IjIwMCIgd2lkdGg9IjIwMCIgdmVyc2lvbj0iMS4xIiB2aWV3Qm94PSIwIDAgMTAyNCAxMDI0IiBjbGFzcz0iaWNvbiI+PHBhdGggZmlsbD0iIzEwOEVFOSIgZD0iTTUxMiAwQzIyOS4yMjc1MiAwIDAgMjI5LjIyNzUyIDAgNTEyczIyOS4yMjc1MiA1MTIgNTEyIDUxMiA1MTItMjI5LjIyNzUyIDUxMi01MTJTNzk0Ljc3MjQ4IDAgNTEyIDB6IG0tNS45MzkyIDIzOC4wOGM3NC41Nzc5MiAwIDEzNS4yNDk5MiA2MC42NDY0IDEzNS4yNDk5MiAxMzUuMjI0MzIgMCA3NC41NTc0NC02MC42NzIgMTM1LjIzNDU2LTEzNS4yNDk5MiAxMzUuMjM0NTYtNzQuNTYyNTYgMC0xMzUuMjAzODQtNjAuNjc3MTItMTM1LjIwMzg0LTEzNS4yMzQ1NiAwLTc0LjU3NzkyIDYwLjY0MTI4LTEzNS4yMjQzMiAxMzUuMjAzODQtMTM1LjIyNDMyeiBtLTExLjk3MDU2IDM1My4yMTM0NGgzNi45MzU2OGw5LjYxNTM2IDEwNy43MjQ4LTI2Ljc3MjQ4IDM3LjY3Mjk2LTMwLjY1ODU2LTM3LjQxMTg0IDEwLjg4LTEwNy45ODU5MnogbS04LjQ3ODcyLTUxLjM1ODcyaDUyLjcyMDY0bC0xMi42ODIyNCAzNC4xMTk2OGgtMjcuNDk0NGwtMTIuNTQ0LTM0LjExOTY4eiBtLTIzMS45MzYgMjQ1Ljk4NTI4YzAtMTIxLjA5MzEyIDYyLjYwMjI0LTIxOC43MDU5MiAxNTcuMjU1NjgtMjQ2Ljk2MzJsMTAuNjI5MTIgMjkuMDM1NTJhMjU2LjQxOTg0IDI1Ni40MTk4NCAwIDAgMC0zMi40MDk2IDE0LjQ2OTEybDEyMy4zNDA4IDE5Mi4wOTcyOCAxMTQuNTAzNjgtMTk0LjY3Nzc2YTI1NS4yMTE1MiAyNTUuMjExNTIgMCAwIDAtMjkuMzA2ODgtMTIuNTg0OTZsMTAuMzg4NDgtMjkuMDg2NzJjMTE0Ljk0NCA0MS4wNzc3NiAxNjIuMjQ3NjggMTI1LjYwMzg0IDE2Mi4yNDc2OCAyNDcuNzE1ODRIMjUzLjY3NTUyeiIvPjwvc3ZnPg==;points=[[0,0,0,0,0],[0,0.25,0,0,0],[0,0.5,0,0,0],[0,0.75,0,0,0],[0,1,0,0,0],[0.25,0.07,0,0,0],[0.25,1,0,0,0],[0.5,0,0,0,0],[0.5,1,0,0,0],[0.75,0.07,0,0,0],[0.75,1,0,0,0],[1,0,0,0,0],[1,0.25,0,0,0],[1,0.5,0,0,0],[1,0.75,0,0,0],[1,1,0,0,0]];" parent="1" vertex="1">
          <mxGeometry x="981" y="-1062" width="42" height="42" as="geometry" />
        </mxCell>
        <mxCell id="FY5eDi_IWiPd35O_f7Xr-31" style="edgeStyle=orthogonalEdgeStyle;rounded=1;orthogonalLoop=1;jettySize=auto;html=1;exitX=0.5;exitY=0;exitDx=0;exitDy=0;entryX=0.5;entryY=0;entryDx=0;entryDy=0;" parent="1" source="FY5eDi_IWiPd35O_f7Xr-22" target="FY5eDi_IWiPd35O_f7Xr-20" edge="1">
          <mxGeometry relative="1" as="geometry">
            <Array as="points">
              <mxPoint x="1125" y="-1080" />
              <mxPoint x="815" y="-1080" />
            </Array>
          </mxGeometry>
        </mxCell>
        <mxCell id="FY5eDi_IWiPd35O_f7Xr-22" value="" style="shape=image;verticalLabelPosition=bottom;labelBackgroundColor=default;verticalAlign=top;aspect=fixed;imageAspect=0;image=data:image/svg+xml,PHN2ZyB4bWxuczp4bGluaz0iaHR0cDovL3d3dy53My5vcmcvMTk5OS94bGluayIgeG1sbnM9Imh0dHA6Ly93d3cudzMub3JnLzIwMDAvc3ZnIiBoZWlnaHQ9IjIwMCIgd2lkdGg9IjIwMCIgdmVyc2lvbj0iMS4xIiB2aWV3Qm94PSIwIDAgMTAyNCAxMDI0IiBjbGFzcz0iaWNvbiI+PHBhdGggZmlsbD0iIzEwOEVFOSIgZD0iTTUxMiAwQzIyOS4yMjc1MiAwIDAgMjI5LjIyNzUyIDAgNTEyczIyOS4yMjc1MiA1MTIgNTEyIDUxMiA1MTItMjI5LjIyNzUyIDUxMi01MTJTNzk0Ljc3MjQ4IDAgNTEyIDB6IG0tNS45MzkyIDIzOC4wOGM3NC41Nzc5MiAwIDEzNS4yNDk5MiA2MC42NDY0IDEzNS4yNDk5MiAxMzUuMjI0MzIgMCA3NC41NTc0NC02MC42NzIgMTM1LjIzNDU2LTEzNS4yNDk5MiAxMzUuMjM0NTYtNzQuNTYyNTYgMC0xMzUuMjAzODQtNjAuNjc3MTItMTM1LjIwMzg0LTEzNS4yMzQ1NiAwLTc0LjU3NzkyIDYwLjY0MTI4LTEzNS4yMjQzMiAxMzUuMjAzODQtMTM1LjIyNDMyeiBtLTExLjk3MDU2IDM1My4yMTM0NGgzNi45MzU2OGw5LjYxNTM2IDEwNy43MjQ4LTI2Ljc3MjQ4IDM3LjY3Mjk2LTMwLjY1ODU2LTM3LjQxMTg0IDEwLjg4LTEwNy45ODU5MnogbS04LjQ3ODcyLTUxLjM1ODcyaDUyLjcyMDY0bC0xMi42ODIyNCAzNC4xMTk2OGgtMjcuNDk0NGwtMTIuNTQ0LTM0LjExOTY4eiBtLTIzMS45MzYgMjQ1Ljk4NTI4YzAtMTIxLjA5MzEyIDYyLjYwMjI0LTIxOC43MDU5MiAxNTcuMjU1NjgtMjQ2Ljk2MzJsMTAuNjI5MTIgMjkuMDM1NTJhMjU2LjQxOTg0IDI1Ni40MTk4NCAwIDAgMC0zMi40MDk2IDE0LjQ2OTEybDEyMy4zNDA4IDE5Mi4wOTcyOCAxMTQuNTAzNjgtMTk0LjY3Nzc2YTI1NS4yMTE1MiAyNTUuMjExNTIgMCAwIDAtMjkuMzA2ODgtMTIuNTg0OTZsMTAuMzg4NDgtMjkuMDg2NzJjMTE0Ljk0NCA0MS4wNzc3NiAxNjIuMjQ3NjggMTI1LjYwMzg0IDE2Mi4yNDc2OCAyNDcuNzE1ODRIMjUzLjY3NTUyeiIvPjwvc3ZnPg==;" parent="1" vertex="1">
          <mxGeometry x="1100" y="-1066" width="50" height="50" as="geometry" />
        </mxCell>
        <mxCell id="FY5eDi_IWiPd35O_f7Xr-27" style="edgeStyle=orthogonalEdgeStyle;rounded=0;orthogonalLoop=1;jettySize=auto;html=1;exitX=1;exitY=0.5;exitDx=0;exitDy=0;" parent="1" source="FY5eDi_IWiPd35O_f7Xr-28" target="FY5eDi_IWiPd35O_f7Xr-22" edge="1">
          <mxGeometry relative="1" as="geometry" />
        </mxCell>
        <mxCell id="FY5eDi_IWiPd35O_f7Xr-25" value="" style="shape=image;verticalLabelPosition=bottom;labelBackgroundColor=default;verticalAlign=top;aspect=fixed;imageAspect=0;image=data:image/svg+xml,PHN2ZyB4bWxuczp4bGluaz0iaHR0cDovL3d3dy53My5vcmcvMTk5OS94bGluayIgeG1sbnM9Imh0dHA6Ly93d3cudzMub3JnLzIwMDAvc3ZnIiBoZWlnaHQ9IjIwMCIgd2lkdGg9IjIwMCIgdmVyc2lvbj0iMS4xIiB2aWV3Qm94PSIwIDAgMTAyNCAxMDI0IiBjbGFzcz0iaWNvbiI+PHBhdGggZmlsbD0iIzEwOEVFOSIgZD0iTTUxMiAwQzIyOS4yMjc1MiAwIDAgMjI5LjIyNzUyIDAgNTEyczIyOS4yMjc1MiA1MTIgNTEyIDUxMiA1MTItMjI5LjIyNzUyIDUxMi01MTJTNzk0Ljc3MjQ4IDAgNTEyIDB6IG0tNS45MzkyIDIzOC4wOGM3NC41Nzc5MiAwIDEzNS4yNDk5MiA2MC42NDY0IDEzNS4yNDk5MiAxMzUuMjI0MzIgMCA3NC41NTc0NC02MC42NzIgMTM1LjIzNDU2LTEzNS4yNDk5MiAxMzUuMjM0NTYtNzQuNTYyNTYgMC0xMzUuMjAzODQtNjAuNjc3MTItMTM1LjIwMzg0LTEzNS4yMzQ1NiAwLTc0LjU3NzkyIDYwLjY0MTI4LTEzNS4yMjQzMiAxMzUuMjAzODQtMTM1LjIyNDMyeiBtLTExLjk3MDU2IDM1My4yMTM0NGgzNi45MzU2OGw5LjYxNTM2IDEwNy43MjQ4LTI2Ljc3MjQ4IDM3LjY3Mjk2LTMwLjY1ODU2LTM3LjQxMTg0IDEwLjg4LTEwNy45ODU5MnogbS04LjQ3ODcyLTUxLjM1ODcyaDUyLjcyMDY0bC0xMi42ODIyNCAzNC4xMTk2OGgtMjcuNDk0NGwtMTIuNTQ0LTM0LjExOTY4eiBtLTIzMS45MzYgMjQ1Ljk4NTI4YzAtMTIxLjA5MzEyIDYyLjYwMjI0LTIxOC43MDU5MiAxNTcuMjU1NjgtMjQ2Ljk2MzJsMTAuNjI5MTIgMjkuMDM1NTJhMjU2LjQxOTg0IDI1Ni40MTk4NCAwIDAgMC0zMi40MDk2IDE0LjQ2OTEybDEyMy4zNDA4IDE5Mi4wOTcyOCAxMTQuNTAzNjgtMTk0LjY3Nzc2YTI1NS4yMTE1MiAyNTUuMjExNTIgMCAwIDAtMjkuMzA2ODgtMTIuNTg0OTZsMTAuMzg4NDgtMjkuMDg2NzJjMTE0Ljk0NCA0MS4wNzc3NiAxNjIuMjQ3NjggMTI1LjYwMzg0IDE2Mi4yNDc2OCAyNDcuNzE1ODRIMjUzLjY3NTUyeiIvPjwvc3ZnPg==;" parent="1" vertex="1">
          <mxGeometry x="932" y="-990" width="50" height="50" as="geometry" />
        </mxCell>
        <mxCell id="FY5eDi_IWiPd35O_f7Xr-29" value="" style="edgeStyle=orthogonalEdgeStyle;rounded=0;orthogonalLoop=1;jettySize=auto;html=1;exitX=1;exitY=0.5;exitDx=0;exitDy=0;" parent="1" source="FY5eDi_IWiPd35O_f7Xr-25" target="FY5eDi_IWiPd35O_f7Xr-28" edge="1">
          <mxGeometry relative="1" as="geometry">
            <mxPoint x="963" y="-965" as="sourcePoint" />
            <mxPoint x="1121" y="-995" as="targetPoint" />
          </mxGeometry>
        </mxCell>
        <mxCell id="FY5eDi_IWiPd35O_f7Xr-28" value="" style="shape=image;verticalLabelPosition=bottom;labelBackgroundColor=default;verticalAlign=top;aspect=fixed;imageAspect=0;image=data:image/svg+xml,PHN2ZyB4bWxuczp4bGluaz0iaHR0cDovL3d3dy53My5vcmcvMTk5OS94bGluayIgeG1sbnM9Imh0dHA6Ly93d3cudzMub3JnLzIwMDAvc3ZnIiBoZWlnaHQ9IjIwMCIgd2lkdGg9IjIwMCIgdmVyc2lvbj0iMS4xIiB2aWV3Qm94PSIwIDAgMTAyNCAxMDI0IiBjbGFzcz0iaWNvbiI+PHBhdGggZmlsbD0iIzEwOEVFOSIgZD0iTTUxMiAwQzIyOS4yMjc1MiAwIDAgMjI5LjIyNzUyIDAgNTEyczIyOS4yMjc1MiA1MTIgNTEyIDUxMiA1MTItMjI5LjIyNzUyIDUxMi01MTJTNzk0Ljc3MjQ4IDAgNTEyIDB6IG0tNS45MzkyIDIzOC4wOGM3NC41Nzc5MiAwIDEzNS4yNDk5MiA2MC42NDY0IDEzNS4yNDk5MiAxMzUuMjI0MzIgMCA3NC41NTc0NC02MC42NzIgMTM1LjIzNDU2LTEzNS4yNDk5MiAxMzUuMjM0NTYtNzQuNTYyNTYgMC0xMzUuMjAzODQtNjAuNjc3MTItMTM1LjIwMzg0LTEzNS4yMzQ1NiAwLTc0LjU3NzkyIDYwLjY0MTI4LTEzNS4yMjQzMiAxMzUuMjAzODQtMTM1LjIyNDMyeiBtLTExLjk3MDU2IDM1My4yMTM0NGgzNi45MzU2OGw5LjYxNTM2IDEwNy43MjQ4LTI2Ljc3MjQ4IDM3LjY3Mjk2LTMwLjY1ODU2LTM3LjQxMTg0IDEwLjg4LTEwNy45ODU5MnogbS04LjQ3ODcyLTUxLjM1ODcyaDUyLjcyMDY0bC0xMi42ODIyNCAzNC4xMTk2OGgtMjcuNDk0NGwtMTIuNTQ0LTM0LjExOTY4eiBtLTIzMS45MzYgMjQ1Ljk4NTI4YzAtMTIxLjA5MzEyIDYyLjYwMjI0LTIxOC43MDU5MiAxNTcuMjU1NjgtMjQ2Ljk2MzJsMTAuNjI5MTIgMjkuMDM1NTJhMjU2LjQxOTg0IDI1Ni40MTk4NCAwIDAgMC0zMi40MDk2IDE0LjQ2OTEybDEyMy4zNDA4IDE5Mi4wOTcyOCAxMTQuNTAzNjgtMTk0LjY3Nzc2YTI1NS4yMTE1MiAyNTUuMjExNTIgMCAwIDAtMjkuMzA2ODgtMTIuNTg0OTZsMTAuMzg4NDgtMjkuMDg2NzJjMTE0Ljk0NCA0MS4wNzc3NiAxNjIuMjQ3NjggMTI1LjYwMzg0IDE2Mi4yNDc2OCAyNDcuNzE1ODRIMjUzLjY3NTUyeiIvPjwvc3ZnPg==;" parent="1" vertex="1">
          <mxGeometry x="1030" y="-990" width="50" height="50" as="geometry" />
        </mxCell>
        <mxCell id="FY5eDi_IWiPd35O_f7Xr-30" value="" style="shape=image;verticalLabelPosition=bottom;labelBackgroundColor=default;verticalAlign=top;aspect=fixed;imageAspect=0;image=data:image/svg+xml,PHN2ZyB4bWxuczp4bGluaz0iaHR0cDovL3d3dy53My5vcmcvMTk5OS94bGluayIgeG1sbnM9Imh0dHA6Ly93d3cudzMub3JnLzIwMDAvc3ZnIiBoZWlnaHQ9IjIwMCIgd2lkdGg9IjIwMCIgdmVyc2lvbj0iMS4xIiB2aWV3Qm94PSIwIDAgMTAyNCAxMDI0IiBjbGFzcz0iaWNvbiI+PHBhdGggZmlsbD0iIzE3QkI3QiIgZD0iTTUxMiA2My42OEMyNjQuNTc2IDYzLjY4IDY0IDI2NC4zODQgNjQgNTEyczIwMC41NzYgNDQ4LjMyIDQ0OCA0NDguMzJTOTYwIDc1OS42MTYgOTYwIDUxMiA3NTkuNDI0IDYzLjY4IDUxMiA2My42OHogbTAgODM2Ljg2NGMtNjMuNDI0IDAtMTIzLjMyOC0xNS4zNi0xNzYuMjU2LTQyLjU2IDAuMjU2LTAuMTkyLTAuODMyLTEuMDI0LTMuOTY4LTIuNDk2LTM1LjItMTYuODMyLTc0LjgxNi03MC45MTItNzYuNzM2LTg3Ljc0NC0xLjg1Ni0xNi44MzItMS44NTYtNDQuOCAxMS4yLTU2IDEzLjEyLTExLjIgMzMuNi0zOS4yMzIgNTkuNzEyLTg0LjAzMiAyNi4xMTItNDQuODY0LTQyLjg4LTU0LjE0NC02MS41MDQtNjEuNjMyLTE4Ljc1Mi03LjQyNC00OC41NzYtNTAuMzY4LTg0LjAzMi01My44MjQtMzUuNDU2LTMuMzkyLTIyLjQgMjUuODU2LTMzLjUzNiAzNS4yLTEwLjQ5NiA4LjcwNC0xNS4xMDQgNy41NTItMjEuNjk2LTMuMi0wLjg5Ni0xMC42MjQtMS40MDgtMjEuMzc2LTEuNDA4LTMyLjI1NiAwLTY0Ljg5NiAxNi0xMjYuMDE2IDQ0LjIyNC0xNzkuODQgOS45Mi02LjQ2NCAxOC45NDQtMTQuNCAxOC45NDQtMTQuNGgxNC45MTJjMS44NTYgMCAxMS40NTYgMTEuMDA4IDAuMTkyIDIwLjM1Mi0xMS4xMzYgOS4yOC0yMC42NzIgNDEuMjggNS42MzIgMzkuMzYgMjYuMzA0LTEuODU2IDYxLjE4NC02LjI3MiA2NC44OTYtMzMuNDcyIDMuNzEyLTI3LjEzNi0xLjQ3Mi0zMi4xMjggMTEuNjQ4LTM3LjY5NiAxMy4xMi01LjU2OCAyNC4yNTYgMS45MiAyMC41NDQgMTguNjg4LTMuNzc2IDE2LjgzMiAwIDM5LjQyNCAxNi43NjggNDMuMDA4IDE2Ljc2OCAzLjY0OCAxMS4yIDIyLjQgMjcuOTY4IDE2Ljc2OCAxNi43NjgtNS41NjggNy40ODgtMzUuNDU2IDIwLjQ4LTUwLjQzMiAxMy4wNTYtMTQuOTEyIDE4LjYyNC0yMi40NjQgMTguNjI0LTQxLjA4OCAwLTE4LjY4OCAxMC4xNzYtMzYuNzM2IDMwLjcyLTQ2LjA4czU4LjgxNi0yLjQ5NiA2OC4xNiAxOS45NjhjOS40MDggMjIuNCAzMy45ODQgNDEuMDg4IDI0LjUxMiA0OC41MTItOS40NzIgNy40ODgtMzAuMDE2IDE2LjgzMi0zNS42NDggMjQuMzItNS41NjggNy40MjQtMTQuOTEyIDEzLjA1Ni0zMS42OCAyNy45NjhzLTM1LjQ1NiA0Mi45NDQtOS4zNDQgNjMuNDg4IDQxLjAyNCAzMS43NDQgNjguOTkyIDMxLjc0NGMyOC4wMzIgMCA1Mi4yODggMjIuNCA2OS4wNTYgMzMuNiAxNi43NjggMTEuMiAyMi4zMzYgMjAuNTQ0IDI4LjAzMiAyOS44MjQgNS41NjggOS4zNDQgMS43OTIgMzMuNiAxMS4xMzYgNTAuNDMyczkuMzQ0IDUyLjI4OCA5LjM0NCA3MC45NzZjMCAxOC42ODggNy40ODggNDQuOCAxMS4yIDYxLjU2OCAzLjc3NiAxNi44MzItNy4yMzIgNTQuNTkyIDEzLjMxMiA1Ni41MTIgMjAuNTQ0IDEuODU2IDI5LjU2OC0xMS43MTIgNTAuMTEyLTUwLjgxNiAyMC40OC0zOS4xNjggMjkuODg4LTM3LjMxMiA0Mi44OC01NC4xNDQgMTMuMTItMTYuNzY4IDE2LjgzMi0zMS43NDQgMTguNjg4LTQ4LjUxMiAxLjg1Ni0xNi44MzIgMjIuNC0xOC42ODggMjIuNC01MC40MzIgMC0zMS43NDQgMC0zMy4wMjQtNy40ODgtNTAuMTEyLTcuNDI0LTE3LjA4OC0xOC42MjQtMTguOTQ0LTE0Ljg0OC0zNS43NzYgMy43MTItMTYuODMyLTMuNzEyLTE2LjgzMiAyMi40LTI5Ljg4OCAyNi4xNzYtMTMuMDU2IDQ0LjczNi0xNC45MTIgNTIuMjI0LTMzLjYgNy40ODgtMTguNjg4IDUuNTY4LTQyLjk0NCA5LjM0NC01NC4xNDQgMy43MTItMTEuMDcyIDMuNzEyLTE2LjI1NiAyMS42MzItMTEuMDA4IDIzLjM2IDQ5LjkyIDM2LjQ4IDEwNS42NjQgMzYuNDggMTY0LjM1MiAwIDIxNC4yNzItMTc0LjE0NCAzODguNTQ0LTM4OC4yMjQgMzg4LjU0NHogbTAgMCIvPjwvc3ZnPg==;points=[[0,0,0,0,0],[0,0.25,0,0,0],[0,0.5,0,0,0],[0,0.75,0,0,0],[0,1,0,0,0],[0.25,1,0,0,0],[0.28,0.1,0,0,0],[0.5,0,0,0,0],[0.5,1,0,0,0],[0.71,0.1,0,0,0],[0.75,1,0,0,0],[1,0,0,0,0],[1,0.25,0,0,0],[1,0.5,0,0,0],[1,0.75,0,0,0],[1,1,0,0,0]];" parent="1" vertex="1">
          <mxGeometry x="590" y="-1120" width="30" height="30" as="geometry" />
        </mxCell>
        <mxCell id="FY5eDi_IWiPd35O_f7Xr-33" value="" style="rounded=1;whiteSpace=wrap;html=1;arcSize=2;" parent="1" vertex="1">
          <mxGeometry x="623" y="-1410" width="420" height="220" as="geometry" />
        </mxCell>
        <mxCell id="FY5eDi_IWiPd35O_f7Xr-34" value="" style="endArrow=none;dashed=1;html=1;dashPattern=1 3;strokeWidth=2;rounded=0;exitX=1;exitY=1;exitDx=0;exitDy=0;entryX=0.75;entryY=0.07;entryDx=0;entryDy=0;entryPerimeter=0;" parent="1" source="FY5eDi_IWiPd35O_f7Xr-33" target="FY5eDi_IWiPd35O_f7Xr-21" edge="1">
          <mxGeometry width="50" height="50" relative="1" as="geometry">
            <mxPoint x="1250" y="-1180" as="sourcePoint" />
            <mxPoint x="940" y="-1067" as="targetPoint" />
          </mxGeometry>
        </mxCell>
        <mxCell id="FY5eDi_IWiPd35O_f7Xr-35" value="" style="endArrow=none;dashed=1;html=1;dashPattern=1 3;strokeWidth=2;rounded=0;exitX=0;exitY=1;exitDx=0;exitDy=0;entryX=0.25;entryY=0.07;entryDx=0;entryDy=0;entryPerimeter=0;" parent="1" source="FY5eDi_IWiPd35O_f7Xr-33" target="FY5eDi_IWiPd35O_f7Xr-21" edge="1">
          <mxGeometry width="50" height="50" relative="1" as="geometry">
            <mxPoint x="670" y="-1179" as="sourcePoint" />
            <mxPoint x="978" y="-1066" as="targetPoint" />
          </mxGeometry>
        </mxCell>
        <mxCell id="FY5eDi_IWiPd35O_f7Xr-36" value="" style="shape=image;verticalLabelPosition=bottom;labelBackgroundColor=default;verticalAlign=top;aspect=fixed;imageAspect=0;image=data:image/svg+xml,PHN2ZyB4bWxuczp4bGluaz0iaHR0cDovL3d3dy53My5vcmcvMTk5OS94bGluayIgeG1sbnM9Imh0dHA6Ly93d3cudzMub3JnLzIwMDAvc3ZnIiBoZWlnaHQ9IjIwMCIgd2lkdGg9IjIwMCIgdmVyc2lvbj0iMS4xIiB2aWV3Qm94PSIwIDAgMTAyNCAxMDI0IiBjbGFzcz0iaWNvbiI+PHBhdGggZmlsbD0iIzEwOEVFOSIgZD0iTTUxMiAwQzIyOS4yMjc1MiAwIDAgMjI5LjIyNzUyIDAgNTEyczIyOS4yMjc1MiA1MTIgNTEyIDUxMiA1MTItMjI5LjIyNzUyIDUxMi01MTJTNzk0Ljc3MjQ4IDAgNTEyIDB6IG0tNS45MzkyIDIzOC4wOGM3NC41Nzc5MiAwIDEzNS4yNDk5MiA2MC42NDY0IDEzNS4yNDk5MiAxMzUuMjI0MzIgMCA3NC41NTc0NC02MC42NzIgMTM1LjIzNDU2LTEzNS4yNDk5MiAxMzUuMjM0NTYtNzQuNTYyNTYgMC0xMzUuMjAzODQtNjAuNjc3MTItMTM1LjIwMzg0LTEzNS4yMzQ1NiAwLTc0LjU3NzkyIDYwLjY0MTI4LTEzNS4yMjQzMiAxMzUuMjAzODQtMTM1LjIyNDMyeiBtLTExLjk3MDU2IDM1My4yMTM0NGgzNi45MzU2OGw5LjYxNTM2IDEwNy43MjQ4LTI2Ljc3MjQ4IDM3LjY3Mjk2LTMwLjY1ODU2LTM3LjQxMTg0IDEwLjg4LTEwNy45ODU5MnogbS04LjQ3ODcyLTUxLjM1ODcyaDUyLjcyMDY0bC0xMi42ODIyNCAzNC4xMTk2OGgtMjcuNDk0NGwtMTIuNTQ0LTM0LjExOTY4eiBtLTIzMS45MzYgMjQ1Ljk4NTI4YzAtMTIxLjA5MzEyIDYyLjYwMjI0LTIxOC43MDU5MiAxNTcuMjU1NjgtMjQ2Ljk2MzJsMTAuNjI5MTIgMjkuMDM1NTJhMjU2LjQxOTg0IDI1Ni40MTk4NCAwIDAgMC0zMi40MDk2IDE0LjQ2OTEybDEyMy4zNDA4IDE5Mi4wOTcyOCAxMTQuNTAzNjgtMTk0LjY3Nzc2YTI1NS4yMTE1MiAyNTUuMjExNTIgMCAwIDAtMjkuMzA2ODgtMTIuNTg0OTZsMTAuMzg4NDgtMjkuMDg2NzJjMTE0Ljk0NCA0MS4wNzc3NiAxNjIuMjQ3NjggMTI1LjYwMzg0IDE2Mi4yNDc2OCAyNDcuNzE1ODRIMjUzLjY3NTUyeiIvPjwvc3ZnPg==;points=[[0,0,0,0,0],[0,0.25,0,0,0],[0,0.5,0,0,0],[0,0.75,0,0,0],[0,1,0,0,0],[0.25,0.07,0,0,0],[0.25,1,0,0,0],[0.5,0,0,0,0],[0.5,1,0,0,0],[0.75,0.07,0,0,0],[0.75,1,0,0,0],[1,0,0,0,0],[1,0.25,0,0,0],[1,0.5,0,0,0],[1,0.75,0,0,0],[1,1,0,0,0]];" parent="1" vertex="1">
          <mxGeometry x="600" y="-1410" width="20" height="20" as="geometry" />
        </mxCell>
        <mxCell id="FY5eDi_IWiPd35O_f7Xr-37" value="A1" style="text;html=1;strokeColor=none;fillColor=none;align=center;verticalAlign=middle;whiteSpace=wrap;rounded=0;" parent="1" vertex="1">
          <mxGeometry x="785" y="-980" width="60" height="30" as="geometry" />
        </mxCell>
        <mxCell id="FY5eDi_IWiPd35O_f7Xr-38" value="A2" style="text;html=1;strokeColor=none;fillColor=none;align=center;verticalAlign=middle;whiteSpace=wrap;rounded=0;" parent="1" vertex="1">
          <mxGeometry x="928" y="-946" width="60" height="30" as="geometry" />
        </mxCell>
        <mxCell id="FY5eDi_IWiPd35O_f7Xr-41" value="A3" style="text;html=1;strokeColor=none;fillColor=none;align=center;verticalAlign=middle;whiteSpace=wrap;rounded=0;" parent="1" vertex="1">
          <mxGeometry x="1025" y="-946" width="60" height="30" as="geometry" />
        </mxCell>
        <mxCell id="FY5eDi_IWiPd35O_f7Xr-42" value="A4" style="text;html=1;strokeColor=none;fillColor=none;align=center;verticalAlign=middle;whiteSpace=wrap;rounded=0;" parent="1" vertex="1">
          <mxGeometry x="1121" y="-1030" width="60" height="30" as="geometry" />
        </mxCell>
        <mxCell id="FY5eDi_IWiPd35O_f7Xr-43" value="A5" style="text;html=1;strokeColor=none;fillColor=none;align=center;verticalAlign=middle;whiteSpace=wrap;rounded=0;" parent="1" vertex="1">
          <mxGeometry x="970" y="-1026" width="60" height="30" as="geometry" />
        </mxCell>
        <mxCell id="FY5eDi_IWiPd35O_f7Xr-51" style="edgeStyle=orthogonalEdgeStyle;orthogonalLoop=1;jettySize=auto;html=1;exitX=1;exitY=0.5;exitDx=0;exitDy=0;exitPerimeter=0;curved=1;fillColor=#0050ef;strokeColor=#001DBC;" parent="1" source="FY5eDi_IWiPd35O_f7Xr-46" edge="1">
          <mxGeometry relative="1" as="geometry">
            <mxPoint x="872.5116279069771" y="-1314.5" as="targetPoint" />
          </mxGeometry>
        </mxCell>
        <mxCell id="FY5eDi_IWiPd35O_f7Xr-46" value="" style="shape=image;verticalLabelPosition=bottom;labelBackgroundColor=default;verticalAlign=top;aspect=fixed;imageAspect=0;image=data:image/svg+xml,PHN2ZyB4bWxuczp4bGluaz0iaHR0cDovL3d3dy53My5vcmcvMTk5OS94bGluayIgeG1sbnM9Imh0dHA6Ly93d3cudzMub3JnLzIwMDAvc3ZnIiBoZWlnaHQ9IjIwMCIgd2lkdGg9IjIwMCIgdmVyc2lvbj0iMS4xIiB2aWV3Qm94PSIwIDAgMTAyNCAxMDI0IiBjbGFzcz0iaWNvbiI+PHBhdGggZmlsbD0iIzEwOEVFOSIgZD0iTTUxMiAwQzIyOS4yMjc1MiAwIDAgMjI5LjIyNzUyIDAgNTEyczIyOS4yMjc1MiA1MTIgNTEyIDUxMiA1MTItMjI5LjIyNzUyIDUxMi01MTJTNzk0Ljc3MjQ4IDAgNTEyIDB6IG0tNS45MzkyIDIzOC4wOGM3NC41Nzc5MiAwIDEzNS4yNDk5MiA2MC42NDY0IDEzNS4yNDk5MiAxMzUuMjI0MzIgMCA3NC41NTc0NC02MC42NzIgMTM1LjIzNDU2LTEzNS4yNDk5MiAxMzUuMjM0NTYtNzQuNTYyNTYgMC0xMzUuMjAzODQtNjAuNjc3MTItMTM1LjIwMzg0LTEzNS4yMzQ1NiAwLTc0LjU3NzkyIDYwLjY0MTI4LTEzNS4yMjQzMiAxMzUuMjAzODQtMTM1LjIyNDMyeiBtLTExLjk3MDU2IDM1My4yMTM0NGgzNi45MzU2OGw5LjYxNTM2IDEwNy43MjQ4LTI2Ljc3MjQ4IDM3LjY3Mjk2LTMwLjY1ODU2LTM3LjQxMTg0IDEwLjg4LTEwNy45ODU5MnogbS04LjQ3ODcyLTUxLjM1ODcyaDUyLjcyMDY0bC0xMi42ODIyNCAzNC4xMTk2OGgtMjcuNDk0NGwtMTIuNTQ0LTM0LjExOTY4eiBtLTIzMS45MzYgMjQ1Ljk4NTI4YzAtMTIxLjA5MzEyIDYyLjYwMjI0LTIxOC43MDU5MiAxNTcuMjU1NjgtMjQ2Ljk2MzJsMTAuNjI5MTIgMjkuMDM1NTJhMjU2LjQxOTg0IDI1Ni40MTk4NCAwIDAgMC0zMi40MDk2IDE0LjQ2OTEybDEyMy4zNDA4IDE5Mi4wOTcyOCAxMTQuNTAzNjgtMTk0LjY3Nzc2YTI1NS4yMTE1MiAyNTUuMjExNTIgMCAwIDAtMjkuMzA2ODgtMTIuNTg0OTZsMTAuMzg4NDgtMjkuMDg2NzJjMTE0Ljk0NCA0MS4wNzc3NiAxNjIuMjQ3NjggMTI1LjYwMzg0IDE2Mi4yNDc2OCAyNDcuNzE1ODRIMjUzLjY3NTUyeiIvPjwvc3ZnPg==;points=[[0,0,0,0,0],[0,0.25,0,0,0],[0,0.5,0,0,0],[0,0.75,0,0,0],[0,1,0,0,0],[0.25,0.07,0,0,0],[0.25,1,0,0,0],[0.5,0,0,0,0],[0.5,1,0,0,0],[0.75,0.07,0,0,0],[0.75,1,0,0,0],[1,0,0,0,0],[1,0.25,0,0,0],[1,0.5,0,0,0],[1,0.75,0,0,0],[1,1,0,0,0]];" parent="1" vertex="1">
          <mxGeometry x="773" y="-1368" width="33" height="33" as="geometry" />
        </mxCell>
        <mxCell id="FY5eDi_IWiPd35O_f7Xr-64" style="edgeStyle=orthogonalEdgeStyle;orthogonalLoop=1;jettySize=auto;html=1;exitX=1;exitY=0.5;exitDx=0;exitDy=0;exitPerimeter=0;entryX=0;entryY=0.5;entryDx=0;entryDy=0;curved=1;fillColor=#f0a30a;strokeColor=#BD7000;" parent="1" source="FY5eDi_IWiPd35O_f7Xr-48" target="FY5eDi_IWiPd35O_f7Xr-54" edge="1">
          <mxGeometry relative="1" as="geometry" />
        </mxCell>
        <mxCell id="FY5eDi_IWiPd35O_f7Xr-48" value="" style="shape=image;verticalLabelPosition=bottom;labelBackgroundColor=default;verticalAlign=top;aspect=fixed;imageAspect=0;image=data:image/svg+xml,PHN2ZyB4bWxuczp4bGluaz0iaHR0cDovL3d3dy53My5vcmcvMTk5OS94bGluayIgeG1sbnM9Imh0dHA6Ly93d3cudzMub3JnLzIwMDAvc3ZnIiBoZWlnaHQ9IjIwMCIgd2lkdGg9IjIwMCIgdmVyc2lvbj0iMS4xIiB2aWV3Qm94PSIwIDAgMTAyNCAxMDI0IiBjbGFzcz0iaWNvbiI+PHBhdGggZmlsbD0iIzEwOEVFOSIgZD0iTTUxMiAwQzIyOS4yMjc1MiAwIDAgMjI5LjIyNzUyIDAgNTEyczIyOS4yMjc1MiA1MTIgNTEyIDUxMiA1MTItMjI5LjIyNzUyIDUxMi01MTJTNzk0Ljc3MjQ4IDAgNTEyIDB6IG0tNS45MzkyIDIzOC4wOGM3NC41Nzc5MiAwIDEzNS4yNDk5MiA2MC42NDY0IDEzNS4yNDk5MiAxMzUuMjI0MzIgMCA3NC41NTc0NC02MC42NzIgMTM1LjIzNDU2LTEzNS4yNDk5MiAxMzUuMjM0NTYtNzQuNTYyNTYgMC0xMzUuMjAzODQtNjAuNjc3MTItMTM1LjIwMzg0LTEzNS4yMzQ1NiAwLTc0LjU3NzkyIDYwLjY0MTI4LTEzNS4yMjQzMiAxMzUuMjAzODQtMTM1LjIyNDMyeiBtLTExLjk3MDU2IDM1My4yMTM0NGgzNi45MzU2OGw5LjYxNTM2IDEwNy43MjQ4LTI2Ljc3MjQ4IDM3LjY3Mjk2LTMwLjY1ODU2LTM3LjQxMTg0IDEwLjg4LTEwNy45ODU5MnogbS04LjQ3ODcyLTUxLjM1ODcyaDUyLjcyMDY0bC0xMi42ODIyNCAzNC4xMTk2OGgtMjcuNDk0NGwtMTIuNTQ0LTM0LjExOTY4eiBtLTIzMS45MzYgMjQ1Ljk4NTI4YzAtMTIxLjA5MzEyIDYyLjYwMjI0LTIxOC43MDU5MiAxNTcuMjU1NjgtMjQ2Ljk2MzJsMTAuNjI5MTIgMjkuMDM1NTJhMjU2LjQxOTg0IDI1Ni40MTk4NCAwIDAgMC0zMi40MDk2IDE0LjQ2OTEybDEyMy4zNDA4IDE5Mi4wOTcyOCAxMTQuNTAzNjgtMTk0LjY3Nzc2YTI1NS4yMTE1MiAyNTUuMjExNTIgMCAwIDAtMjkuMzA2ODgtMTIuNTg0OTZsMTAuMzg4NDgtMjkuMDg2NzJjMTE0Ljk0NCA0MS4wNzc3NiAxNjIuMjQ3NjggMTI1LjYwMzg0IDE2Mi4yNDc2OCAyNDcuNzE1ODRIMjUzLjY3NTUyeiIvPjwvc3ZnPg==;points=[[0,0,0,0,0],[0,0.25,0,0,0],[0,0.5,0,0,0],[0,0.75,0,0,0],[0,1,0,0,0],[0.25,0.07,0,0,0],[0.25,1,0,0,0],[0.5,0,0,0,0],[0.5,1,0,0,0],[0.75,0.07,0,0,0],[0.75,1,0,0,0],[1,0,0,0,0],[1,0.25,0,0,0],[1,0.5,0,0,0],[1,0.75,0,0,0],[1,1,0,0,0]];" parent="1" vertex="1">
          <mxGeometry x="773" y="-1258" width="33" height="33" as="geometry" />
        </mxCell>
        <mxCell id="FY5eDi_IWiPd35O_f7Xr-49" value="" style="shape=image;verticalLabelPosition=bottom;labelBackgroundColor=default;verticalAlign=top;aspect=fixed;imageAspect=0;image=data:image/svg+xml,PHN2ZyB4bWxuczp4bGluaz0iaHR0cDovL3d3dy53My5vcmcvMTk5OS94bGluayIgeG1sbnM9Imh0dHA6Ly93d3cudzMub3JnLzIwMDAvc3ZnIiBoZWlnaHQ9IjIwMCIgd2lkdGg9IjIwMCIgdmVyc2lvbj0iMS4xIiB2aWV3Qm94PSIwIDAgMTAyNCAxMDI0IiBjbGFzcz0iaWNvbiI+PHBhdGggZmlsbD0iIzEwOEVFOSIgZD0iTTUxMiAwQzIyOS4yMjc1MiAwIDAgMjI5LjIyNzUyIDAgNTEyczIyOS4yMjc1MiA1MTIgNTEyIDUxMiA1MTItMjI5LjIyNzUyIDUxMi01MTJTNzk0Ljc3MjQ4IDAgNTEyIDB6IG0tNS45MzkyIDIzOC4wOGM3NC41Nzc5MiAwIDEzNS4yNDk5MiA2MC42NDY0IDEzNS4yNDk5MiAxMzUuMjI0MzIgMCA3NC41NTc0NC02MC42NzIgMTM1LjIzNDU2LTEzNS4yNDk5MiAxMzUuMjM0NTYtNzQuNTYyNTYgMC0xMzUuMjAzODQtNjAuNjc3MTItMTM1LjIwMzg0LTEzNS4yMzQ1NiAwLTc0LjU3NzkyIDYwLjY0MTI4LTEzNS4yMjQzMiAxMzUuMjAzODQtMTM1LjIyNDMyeiBtLTExLjk3MDU2IDM1My4yMTM0NGgzNi45MzU2OGw5LjYxNTM2IDEwNy43MjQ4LTI2Ljc3MjQ4IDM3LjY3Mjk2LTMwLjY1ODU2LTM3LjQxMTg0IDEwLjg4LTEwNy45ODU5MnogbS04LjQ3ODcyLTUxLjM1ODcyaDUyLjcyMDY0bC0xMi42ODIyNCAzNC4xMTk2OGgtMjcuNDk0NGwtMTIuNTQ0LTM0LjExOTY4eiBtLTIzMS45MzYgMjQ1Ljk4NTI4YzAtMTIxLjA5MzEyIDYyLjYwMjI0LTIxOC43MDU5MiAxNTcuMjU1NjgtMjQ2Ljk2MzJsMTAuNjI5MTIgMjkuMDM1NTJhMjU2LjQxOTg0IDI1Ni40MTk4NCAwIDAgMC0zMi40MDk2IDE0LjQ2OTEybDEyMy4zNDA4IDE5Mi4wOTcyOCAxMTQuNTAzNjgtMTk0LjY3Nzc2YTI1NS4yMTE1MiAyNTUuMjExNTIgMCAwIDAtMjkuMzA2ODgtMTIuNTg0OTZsMTAuMzg4NDgtMjkuMDg2NzJjMTE0Ljk0NCA0MS4wNzc3NiAxNjIuMjQ3NjggMTI1LjYwMzg0IDE2Mi4yNDc2OCAyNDcuNzE1ODRIMjUzLjY3NTUyeiIvPjwvc3ZnPg==;points=[[0,0,0,0,0],[0,0.25,0,0,0],[0,0.5,0,0,0],[0,0.75,0,0,0],[0,1,0,0,0],[0.25,0.07,0,0,0],[0.25,1,0,0,0],[0.5,0,0,0,0],[0.5,1,0,0,0],[0.75,0.07,0,0,0],[0.75,1,0,0,0],[1,0,0,0,0],[1,0.25,0,0,0],[1,0.5,0,0,0],[1,0.75,0,0,0],[1,1,0,0,0]];" parent="1" vertex="1">
          <mxGeometry x="936" y="-1368" width="33" height="33" as="geometry" />
        </mxCell>
        <mxCell id="FY5eDi_IWiPd35O_f7Xr-60" style="edgeStyle=orthogonalEdgeStyle;orthogonalLoop=1;jettySize=auto;html=1;exitX=0;exitY=0.5;exitDx=0;exitDy=0;exitPerimeter=0;curved=1;fillColor=#d80073;strokeColor=#A50040;" parent="1" source="FY5eDi_IWiPd35O_f7Xr-50" target="FY5eDi_IWiPd35O_f7Xr-54" edge="1">
          <mxGeometry relative="1" as="geometry" />
        </mxCell>
        <mxCell id="FY5eDi_IWiPd35O_f7Xr-50" value="" style="shape=image;verticalLabelPosition=bottom;labelBackgroundColor=default;verticalAlign=top;aspect=fixed;imageAspect=0;image=data:image/svg+xml,PHN2ZyB4bWxuczp4bGluaz0iaHR0cDovL3d3dy53My5vcmcvMTk5OS94bGluayIgeG1sbnM9Imh0dHA6Ly93d3cudzMub3JnLzIwMDAvc3ZnIiBoZWlnaHQ9IjIwMCIgd2lkdGg9IjIwMCIgdmVyc2lvbj0iMS4xIiB2aWV3Qm94PSIwIDAgMTAyNCAxMDI0IiBjbGFzcz0iaWNvbiI+PHBhdGggZmlsbD0iIzEwOEVFOSIgZD0iTTUxMiAwQzIyOS4yMjc1MiAwIDAgMjI5LjIyNzUyIDAgNTEyczIyOS4yMjc1MiA1MTIgNTEyIDUxMiA1MTItMjI5LjIyNzUyIDUxMi01MTJTNzk0Ljc3MjQ4IDAgNTEyIDB6IG0tNS45MzkyIDIzOC4wOGM3NC41Nzc5MiAwIDEzNS4yNDk5MiA2MC42NDY0IDEzNS4yNDk5MiAxMzUuMjI0MzIgMCA3NC41NTc0NC02MC42NzIgMTM1LjIzNDU2LTEzNS4yNDk5MiAxMzUuMjM0NTYtNzQuNTYyNTYgMC0xMzUuMjAzODQtNjAuNjc3MTItMTM1LjIwMzg0LTEzNS4yMzQ1NiAwLTc0LjU3NzkyIDYwLjY0MTI4LTEzNS4yMjQzMiAxMzUuMjAzODQtMTM1LjIyNDMyeiBtLTExLjk3MDU2IDM1My4yMTM0NGgzNi45MzU2OGw5LjYxNTM2IDEwNy43MjQ4LTI2Ljc3MjQ4IDM3LjY3Mjk2LTMwLjY1ODU2LTM3LjQxMTg0IDEwLjg4LTEwNy45ODU5MnogbS04LjQ3ODcyLTUxLjM1ODcyaDUyLjcyMDY0bC0xMi42ODIyNCAzNC4xMTk2OGgtMjcuNDk0NGwtMTIuNTQ0LTM0LjExOTY4eiBtLTIzMS45MzYgMjQ1Ljk4NTI4YzAtMTIxLjA5MzEyIDYyLjYwMjI0LTIxOC43MDU5MiAxNTcuMjU1NjgtMjQ2Ljk2MzJsMTAuNjI5MTIgMjkuMDM1NTJhMjU2LjQxOTg0IDI1Ni40MTk4NCAwIDAgMC0zMi40MDk2IDE0LjQ2OTEybDEyMy4zNDA4IDE5Mi4wOTcyOCAxMTQuNTAzNjgtMTk0LjY3Nzc2YTI1NS4yMTE1MiAyNTUuMjExNTIgMCAwIDAtMjkuMzA2ODgtMTIuNTg0OTZsMTAuMzg4NDgtMjkuMDg2NzJjMTE0Ljk0NCA0MS4wNzc3NiAxNjIuMjQ3NjggMTI1LjYwMzg0IDE2Mi4yNDc2OCAyNDcuNzE1ODRIMjUzLjY3NTUyeiIvPjwvc3ZnPg==;points=[[0,0,0,0,0],[0,0.25,0,0,0],[0,0.5,0,0,0],[0,0.75,0,0,0],[0,1,0,0,0],[0.25,0.07,0,0,0],[0.25,1,0,0,0],[0.5,0,0,0,0],[0.5,1,0,0,0],[0.75,0.07,0,0,0],[0.75,1,0,0,0],[1,0,0,0,0],[1,0.25,0,0,0],[1,0.5,0,0,0],[1,0.75,0,0,0],[1,1,0,0,0]];" parent="1" vertex="1">
          <mxGeometry x="936" y="-1258" width="33" height="33" as="geometry" />
        </mxCell>
        <mxCell id="FY5eDi_IWiPd35O_f7Xr-61" style="edgeStyle=orthogonalEdgeStyle;orthogonalLoop=1;jettySize=auto;html=1;exitX=0.5;exitY=0;exitDx=0;exitDy=0;entryX=0;entryY=0.5;entryDx=0;entryDy=0;entryPerimeter=0;curved=1;fillColor=#0050ef;strokeColor=#001DBC;" parent="1" source="FY5eDi_IWiPd35O_f7Xr-54" target="FY5eDi_IWiPd35O_f7Xr-50" edge="1">
          <mxGeometry relative="1" as="geometry" />
        </mxCell>
        <mxCell id="FY5eDi_IWiPd35O_f7Xr-54" value="" style="shape=image;verticalLabelPosition=bottom;labelBackgroundColor=default;verticalAlign=top;aspect=fixed;imageAspect=0;image=data:image/svg+xml,PHN2ZyB4bWxuczp4bGluaz0iaHR0cDovL3d3dy53My5vcmcvMTk5OS94bGluayIgeG1sbnM9Imh0dHA6Ly93d3cudzMub3JnLzIwMDAvc3ZnIiBoZWlnaHQ9IjIwMCIgd2lkdGg9IjIwMCIgdmVyc2lvbj0iMS4xIiB2aWV3Qm94PSIwIDAgMTAyNCAxMDI0IiBjbGFzcz0iaWNvbiI+PHBhdGggZmlsbD0iIzFhZmEyOSIgZD0iTTUxMiAwQzIyOS4yMjc1MiAwIDAgMjI5LjIyNzUyIDAgNTEyczIyOS4yMjc1MiA1MTIgNTEyIDUxMiA1MTItMjI5LjIyNzUyIDUxMi01MTJTNzk0Ljc3MjQ4IDAgNTEyIDB6IG0tNS45MzkyIDIzOC4wOGM3NC41Nzc5MiAwIDEzNS4yNDk5MiA2MC42NDY0IDEzNS4yNDk5MiAxMzUuMjI0MzIgMCA3NC41NTc0NC02MC42NzIgMTM1LjIzNDU2LTEzNS4yNDk5MiAxMzUuMjM0NTYtNzQuNTYyNTYgMC0xMzUuMjAzODQtNjAuNjc3MTItMTM1LjIwMzg0LTEzNS4yMzQ1NiAwLTc0LjU3NzkyIDYwLjY0MTI4LTEzNS4yMjQzMiAxMzUuMjAzODQtMTM1LjIyNDMyeiBtLTExLjk3MDU2IDM1My4yMTM0NGgzNi45MzU2OGw5LjYxNTM2IDEwNy43MjQ4LTI2Ljc3MjQ4IDM3LjY3Mjk2LTMwLjY1ODU2LTM3LjQxMTg0IDEwLjg4LTEwNy45ODU5MnogbS04LjQ3ODcyLTUxLjM1ODcyaDUyLjcyMDY0bC0xMi42ODIyNCAzNC4xMTk2OGgtMjcuNDk0NGwtMTIuNTQ0LTM0LjExOTY4eiBtLTIzMS45MzYgMjQ1Ljk4NTI4YzAtMTIxLjA5MzEyIDYyLjYwMjI0LTIxOC43MDU5MiAxNTcuMjU1NjgtMjQ2Ljk2MzJsMTAuNjI5MTIgMjkuMDM1NTJhMjU2LjQxOTg0IDI1Ni40MTk4NCAwIDAgMC0zMi40MDk2IDE0LjQ2OTEybDEyMy4zNDA4IDE5Mi4wOTcyOCAxMTQuNTAzNjgtMTk0LjY3Nzc2YTI1NS4yMTE1MiAyNTUuMjExNTIgMCAwIDAtMjkuMzA2ODgtMTIuNTg0OTZsMTAuMzg4NDgtMjkuMDg2NzJjMTE0Ljk0NCA0MS4wNzc3NiAxNjIuMjQ3NjggMTI1LjYwMzg0IDE2Mi4yNDc2OCAyNDcuNzE1ODRIMjUzLjY3NTUyeiIvPjwvc3ZnPg==;" parent="1" vertex="1">
          <mxGeometry x="858.66" y="-1313" width="30" height="30" as="geometry" />
        </mxCell>
        <mxCell id="FY5eDi_IWiPd35O_f7Xr-56" value="A5-1" style="text;html=1;strokeColor=none;fillColor=none;align=center;verticalAlign=middle;whiteSpace=wrap;rounded=0;" parent="1" vertex="1">
          <mxGeometry x="720" y="-1343" width="60" height="30" as="geometry" />
        </mxCell>
        <mxCell id="FY5eDi_IWiPd35O_f7Xr-57" value="A5-2" style="text;html=1;strokeColor=none;fillColor=none;align=center;verticalAlign=middle;whiteSpace=wrap;rounded=0;" parent="1" vertex="1">
          <mxGeometry x="956" y="-1343" width="60" height="30" as="geometry" />
        </mxCell>
        <mxCell id="FY5eDi_IWiPd35O_f7Xr-58" value="A5-3" style="text;html=1;strokeColor=none;fillColor=none;align=center;verticalAlign=middle;whiteSpace=wrap;rounded=0;" parent="1" vertex="1">
          <mxGeometry x="720" y="-1238" width="60" height="30" as="geometry" />
        </mxCell>
        <mxCell id="FY5eDi_IWiPd35O_f7Xr-59" value="A5-4" style="text;html=1;strokeColor=none;fillColor=none;align=center;verticalAlign=middle;whiteSpace=wrap;rounded=0;" parent="1" vertex="1">
          <mxGeometry x="956" y="-1238" width="60" height="30" as="geometry" />
        </mxCell>
        <mxCell id="FY5eDi_IWiPd35O_f7Xr-62" style="edgeStyle=orthogonalEdgeStyle;orthogonalLoop=1;jettySize=auto;html=1;exitX=0.5;exitY=1;exitDx=0;exitDy=0;curved=1;fillColor=#d80073;strokeColor=#A50040;entryX=1;entryY=0.5;entryDx=0;entryDy=0;entryPerimeter=0;" parent="1" source="FY5eDi_IWiPd35O_f7Xr-54" target="FY5eDi_IWiPd35O_f7Xr-48" edge="1">
          <mxGeometry relative="1" as="geometry">
            <mxPoint x="946" y="-1231" as="sourcePoint" />
            <mxPoint x="884" y="-1273" as="targetPoint" />
          </mxGeometry>
        </mxCell>
        <mxCell id="FY5eDi_IWiPd35O_f7Xr-66" style="edgeStyle=orthogonalEdgeStyle;orthogonalLoop=1;jettySize=auto;html=1;exitX=0;exitY=0.5;exitDx=0;exitDy=0;entryX=0;entryY=0.5;entryDx=0;entryDy=0;curved=1;fillColor=#f0a30a;strokeColor=#BD7000;entryPerimeter=0;" parent="1" source="FY5eDi_IWiPd35O_f7Xr-54" target="FY5eDi_IWiPd35O_f7Xr-49" edge="1">
          <mxGeometry relative="1" as="geometry">
            <mxPoint x="816" y="-1231" as="sourcePoint" />
            <mxPoint x="869" y="-1288" as="targetPoint" />
          </mxGeometry>
        </mxCell>
        <mxCell id="FY5eDi_IWiPd35O_f7Xr-67" value="Agent Level Orig 2：&lt;br&gt;&lt;font style=&quot;font-size: 12px;&quot;&gt;Autonomous&amp;nbsp;&lt;/font&gt;&lt;i style=&quot;font-size: 12px;&quot;&gt;&lt;font style=&quot;font-size: 12px;&quot;&gt;Discussion&lt;/font&gt;&lt;br&gt;&lt;/i&gt;" style="text;html=1;strokeColor=none;fillColor=none;align=left;verticalAlign=middle;whiteSpace=wrap;rounded=0;fontSize=24;" parent="1" vertex="1">
          <mxGeometry x="625" y="-1398" width="250" height="30" as="geometry" />
        </mxCell>
        <mxCell id="FY5eDi_IWiPd35O_f7Xr-68" value="Agent Level Orig 1：&lt;br style=&quot;border-color: var(--border-color);&quot;&gt;&lt;span style=&quot;font-size: 12px;&quot;&gt;DAG or DCG&lt;/span&gt;" style="text;html=1;strokeColor=none;fillColor=none;align=left;verticalAlign=middle;whiteSpace=wrap;rounded=0;fontSize=24;" parent="1" vertex="1">
          <mxGeometry x="640" y="-1101" width="230" height="30" as="geometry" />
        </mxCell>
        <mxCell id="FY5eDi_IWiPd35O_f7Xr-70" value="" style="rounded=1;whiteSpace=wrap;html=1;arcSize=2;" parent="1" vertex="1">
          <mxGeometry x="1070" y="-1410" width="300" height="220" as="geometry" />
        </mxCell>
        <mxCell id="FY5eDi_IWiPd35O_f7Xr-71" value="" style="shape=image;verticalLabelPosition=bottom;labelBackgroundColor=default;verticalAlign=top;aspect=fixed;imageAspect=0;image=data:image/svg+xml,PHN2ZyB4bWxuczp4bGluaz0iaHR0cDovL3d3dy53My5vcmcvMTk5OS94bGluayIgeG1sbnM9Imh0dHA6Ly93d3cudzMub3JnLzIwMDAvc3ZnIiBoZWlnaHQ9IjIwMCIgd2lkdGg9IjIwMCIgdmVyc2lvbj0iMS4xIiB2aWV3Qm94PSIwIDAgMTAyNCAxMDI0IiBjbGFzcz0iaWNvbiI+PHBhdGggZmlsbD0iIzEwOEVFOSIgZD0iTTUxMiAwQzIyOS4yMjc1MiAwIDAgMjI5LjIyNzUyIDAgNTEyczIyOS4yMjc1MiA1MTIgNTEyIDUxMiA1MTItMjI5LjIyNzUyIDUxMi01MTJTNzk0Ljc3MjQ4IDAgNTEyIDB6IG0tNS45MzkyIDIzOC4wOGM3NC41Nzc5MiAwIDEzNS4yNDk5MiA2MC42NDY0IDEzNS4yNDk5MiAxMzUuMjI0MzIgMCA3NC41NTc0NC02MC42NzIgMTM1LjIzNDU2LTEzNS4yNDk5MiAxMzUuMjM0NTYtNzQuNTYyNTYgMC0xMzUuMjAzODQtNjAuNjc3MTItMTM1LjIwMzg0LTEzNS4yMzQ1NiAwLTc0LjU3NzkyIDYwLjY0MTI4LTEzNS4yMjQzMiAxMzUuMjAzODQtMTM1LjIyNDMyeiBtLTExLjk3MDU2IDM1My4yMTM0NGgzNi45MzU2OGw5LjYxNTM2IDEwNy43MjQ4LTI2Ljc3MjQ4IDM3LjY3Mjk2LTMwLjY1ODU2LTM3LjQxMTg0IDEwLjg4LTEwNy45ODU5MnogbS04LjQ3ODcyLTUxLjM1ODcyaDUyLjcyMDY0bC0xMi42ODIyNCAzNC4xMTk2OGgtMjcuNDk0NGwtMTIuNTQ0LTM0LjExOTY4eiBtLTIzMS45MzYgMjQ1Ljk4NTI4YzAtMTIxLjA5MzEyIDYyLjYwMjI0LTIxOC43MDU5MiAxNTcuMjU1NjgtMjQ2Ljk2MzJsMTAuNjI5MTIgMjkuMDM1NTJhMjU2LjQxOTg0IDI1Ni40MTk4NCAwIDAgMC0zMi40MDk2IDE0LjQ2OTEybDEyMy4zNDA4IDE5Mi4wOTcyOCAxMTQuNTAzNjgtMTk0LjY3Nzc2YTI1NS4yMTE1MiAyNTUuMjExNTIgMCAwIDAtMjkuMzA2ODgtMTIuNTg0OTZsMTAuMzg4NDgtMjkuMDg2NzJjMTE0Ljk0NCA0MS4wNzc3NiAxNjIuMjQ3NjggMTI1LjYwMzg0IDE2Mi4yNDc2OCAyNDcuNzE1ODRIMjUzLjY3NTUyeiIvPjwvc3ZnPg==;points=[[0,0,0,0,0],[0,0.25,0,0,0],[0,0.5,0,0,0],[0,0.75,0,0,0],[0,1,0,0,0],[0.25,0.07,0,0,0],[0.25,1,0,0,0],[0.5,0,0,0,0],[0.5,1,0,0,0],[0.75,0.07,0,0,0],[0.75,1,0,0,0],[1,0,0,0,0],[1,0.25,0,0,0],[1,0.5,0,0,0],[1,0.75,0,0,0],[1,1,0,0,0]];" parent="1" vertex="1">
          <mxGeometry x="1050" y="-1410" width="20" height="20" as="geometry" />
        </mxCell>
        <mxCell id="FY5eDi_IWiPd35O_f7Xr-88" value="" style="endArrow=none;dashed=1;html=1;dashPattern=1 3;strokeWidth=2;rounded=0;exitX=1;exitY=1;exitDx=0;exitDy=0;entryX=0.75;entryY=0;entryDx=0;entryDy=0;" parent="1" source="FY5eDi_IWiPd35O_f7Xr-70" target="FY5eDi_IWiPd35O_f7Xr-22" edge="1">
          <mxGeometry width="50" height="50" relative="1" as="geometry">
            <mxPoint x="1237" y="-1170.5" as="sourcePoint" />
            <mxPoint x="1220" y="-1039.5" as="targetPoint" />
          </mxGeometry>
        </mxCell>
        <mxCell id="FY5eDi_IWiPd35O_f7Xr-89" value="" style="endArrow=none;dashed=1;html=1;dashPattern=1 3;strokeWidth=2;rounded=0;exitX=0;exitY=1;exitDx=0;exitDy=0;" parent="1" source="FY5eDi_IWiPd35O_f7Xr-70" target="FY5eDi_IWiPd35O_f7Xr-22" edge="1">
          <mxGeometry width="50" height="50" relative="1" as="geometry">
            <mxPoint x="1045.5" y="-1169" as="sourcePoint" />
            <mxPoint x="1427.5" y="-1038" as="targetPoint" />
          </mxGeometry>
        </mxCell>
        <mxCell id="FY5eDi_IWiPd35O_f7Xr-94" style="edgeStyle=orthogonalEdgeStyle;rounded=0;orthogonalLoop=1;jettySize=auto;html=1;exitX=1;exitY=0.5;exitDx=0;exitDy=0;exitPerimeter=0;entryX=0;entryY=0.5;entryDx=0;entryDy=0;entryPerimeter=0;" parent="1" source="FY5eDi_IWiPd35O_f7Xr-90" target="FY5eDi_IWiPd35O_f7Xr-96" edge="1">
          <mxGeometry relative="1" as="geometry">
            <mxPoint x="1160" y="-1313.6206896551723" as="targetPoint" />
          </mxGeometry>
        </mxCell>
        <mxCell id="FY5eDi_IWiPd35O_f7Xr-90" value="" style="shape=image;verticalLabelPosition=bottom;labelBackgroundColor=default;verticalAlign=top;aspect=fixed;imageAspect=0;image=data:image/svg+xml,PHN2ZyB4bWxuczp4bGluaz0iaHR0cDovL3d3dy53My5vcmcvMTk5OS94bGluayIgeG1sbnM9Imh0dHA6Ly93d3cudzMub3JnLzIwMDAvc3ZnIiBoZWlnaHQ9IjIwMCIgd2lkdGg9IjIwMCIgdmVyc2lvbj0iMS4xIiB2aWV3Qm94PSIwIDAgMTAyNCAxMDI0IiBjbGFzcz0iaWNvbiI+PHBhdGggZmlsbD0iIzEwOEVFOSIgZD0iTTUxMiAwQzIyOS4yMjc1MiAwIDAgMjI5LjIyNzUyIDAgNTEyczIyOS4yMjc1MiA1MTIgNTEyIDUxMiA1MTItMjI5LjIyNzUyIDUxMi01MTJTNzk0Ljc3MjQ4IDAgNTEyIDB6IG0tNS45MzkyIDIzOC4wOGM3NC41Nzc5MiAwIDEzNS4yNDk5MiA2MC42NDY0IDEzNS4yNDk5MiAxMzUuMjI0MzIgMCA3NC41NTc0NC02MC42NzIgMTM1LjIzNDU2LTEzNS4yNDk5MiAxMzUuMjM0NTYtNzQuNTYyNTYgMC0xMzUuMjAzODQtNjAuNjc3MTItMTM1LjIwMzg0LTEzNS4yMzQ1NiAwLTc0LjU3NzkyIDYwLjY0MTI4LTEzNS4yMjQzMiAxMzUuMjAzODQtMTM1LjIyNDMyeiBtLTExLjk3MDU2IDM1My4yMTM0NGgzNi45MzU2OGw5LjYxNTM2IDEwNy43MjQ4LTI2Ljc3MjQ4IDM3LjY3Mjk2LTMwLjY1ODU2LTM3LjQxMTg0IDEwLjg4LTEwNy45ODU5MnogbS04LjQ3ODcyLTUxLjM1ODcyaDUyLjcyMDY0bC0xMi42ODIyNCAzNC4xMTk2OGgtMjcuNDk0NGwtMTIuNTQ0LTM0LjExOTY4eiBtLTIzMS45MzYgMjQ1Ljk4NTI4YzAtMTIxLjA5MzEyIDYyLjYwMjI0LTIxOC43MDU5MiAxNTcuMjU1NjgtMjQ2Ljk2MzJsMTAuNjI5MTIgMjkuMDM1NTJhMjU2LjQxOTg0IDI1Ni40MTk4NCAwIDAgMC0zMi40MDk2IDE0LjQ2OTEybDEyMy4zNDA4IDE5Mi4wOTcyOCAxMTQuNTAzNjgtMTk0LjY3Nzc2YTI1NS4yMTE1MiAyNTUuMjExNTIgMCAwIDAtMjkuMzA2ODgtMTIuNTg0OTZsMTAuMzg4NDgtMjkuMDg2NzJjMTE0Ljk0NCA0MS4wNzc3NiAxNjIuMjQ3NjggMTI1LjYwMzg0IDE2Mi4yNDc2OCAyNDcuNzE1ODRIMjUzLjY3NTUyeiIvPjwvc3ZnPg==;points=[[0,0,0,0,0],[0,0.25,0,0,0],[0,0.5,0,0,0],[0,0.75,0,0,0],[0,1,0,0,0],[0.25,0.07,0,0,0],[0.25,1,0,0,0],[0.5,0,0,0,0],[0.5,1,0,0,0],[0.75,0.07,0,0,0],[0.75,1,0,0,0],[1,0,0,0,0],[1,0.25,0,0,0],[1,0.5,0,0,0],[1,0.75,0,0,0],[1,1,0,0,0]];" parent="1" vertex="1">
          <mxGeometry x="1100" y="-1330" width="33" height="33" as="geometry" />
        </mxCell>
        <mxCell id="FY5eDi_IWiPd35O_f7Xr-93" value="" style="group" parent="1" vertex="1" connectable="0">
          <mxGeometry x="1245" y="-1328.5" width="60" height="30" as="geometry" />
        </mxCell>
        <mxCell id="FY5eDi_IWiPd35O_f7Xr-92" value="" style="rhombus;whiteSpace=wrap;html=1;" parent="FY5eDi_IWiPd35O_f7Xr-93" vertex="1">
          <mxGeometry width="60" height="30" as="geometry" />
        </mxCell>
        <mxCell id="FY5eDi_IWiPd35O_f7Xr-91" value="" style="shape=image;verticalLabelPosition=bottom;labelBackgroundColor=default;verticalAlign=top;aspect=fixed;imageAspect=0;image=data:image/svg+xml,PHN2ZyB4bWxuczp4bGluaz0iaHR0cDovL3d3dy53My5vcmcvMTk5OS94bGluayIgeG1sbnM9Imh0dHA6Ly93d3cudzMub3JnLzIwMDAvc3ZnIiBoZWlnaHQ9IjIwMCIgd2lkdGg9IjIwMCIgdmVyc2lvbj0iMS4xIiB2aWV3Qm94PSIwIDAgMTAyNCAxMDI0IiBjbGFzcz0iaWNvbiI+PHBhdGggZmlsbD0iIzEwOEVFOSIgZD0iTTUxMiAwQzIyOS4yMjc1MiAwIDAgMjI5LjIyNzUyIDAgNTEyczIyOS4yMjc1MiA1MTIgNTEyIDUxMiA1MTItMjI5LjIyNzUyIDUxMi01MTJTNzk0Ljc3MjQ4IDAgNTEyIDB6IG0tNS45MzkyIDIzOC4wOGM3NC41Nzc5MiAwIDEzNS4yNDk5MiA2MC42NDY0IDEzNS4yNDk5MiAxMzUuMjI0MzIgMCA3NC41NTc0NC02MC42NzIgMTM1LjIzNDU2LTEzNS4yNDk5MiAxMzUuMjM0NTYtNzQuNTYyNTYgMC0xMzUuMjAzODQtNjAuNjc3MTItMTM1LjIwMzg0LTEzNS4yMzQ1NiAwLTc0LjU3NzkyIDYwLjY0MTI4LTEzNS4yMjQzMiAxMzUuMjAzODQtMTM1LjIyNDMyeiBtLTExLjk3MDU2IDM1My4yMTM0NGgzNi45MzU2OGw5LjYxNTM2IDEwNy43MjQ4LTI2Ljc3MjQ4IDM3LjY3Mjk2LTMwLjY1ODU2LTM3LjQxMTg0IDEwLjg4LTEwNy45ODU5MnogbS04LjQ3ODcyLTUxLjM1ODcyaDUyLjcyMDY0bC0xMi42ODIyNCAzNC4xMTk2OGgtMjcuNDk0NGwtMTIuNTQ0LTM0LjExOTY4eiBtLTIzMS45MzYgMjQ1Ljk4NTI4YzAtMTIxLjA5MzEyIDYyLjYwMjI0LTIxOC43MDU5MiAxNTcuMjU1NjgtMjQ2Ljk2MzJsMTAuNjI5MTIgMjkuMDM1NTJhMjU2LjQxOTg0IDI1Ni40MTk4NCAwIDAgMC0zMi40MDk2IDE0LjQ2OTEybDEyMy4zNDA4IDE5Mi4wOTcyOCAxMTQuNTAzNjgtMTk0LjY3Nzc2YTI1NS4yMTE1MiAyNTUuMjExNTIgMCAwIDAtMjkuMzA2ODgtMTIuNTg0OTZsMTAuMzg4NDgtMjkuMDg2NzJjMTE0Ljk0NCA0MS4wNzc3NiAxNjIuMjQ3NjggMTI1LjYwMzg0IDE2Mi4yNDc2OCAyNDcuNzE1ODRIMjUzLjY3NTUyeiIvPjwvc3ZnPg==;points=[[0,0,0,0,0],[0,0.25,0,0,0],[0,0.5,0,0,0],[0,0.75,0,0,0],[0,1,0,0,0],[0.25,0.07,0,0,0],[0.25,1,0,0,0],[0.5,0,0,0,0],[0.5,1,0,0,0],[0.75,0.07,0,0,0],[0.75,1,0,0,0],[1,0,0,0,0],[1,0.25,0,0,0],[1,0.5,0,0,0],[1,0.75,0,0,0],[1,1,0,0,0]];" parent="FY5eDi_IWiPd35O_f7Xr-93" vertex="1">
          <mxGeometry x="21.75" y="6.75" width="16.5" height="16.5" as="geometry" />
        </mxCell>
        <mxCell id="FY5eDi_IWiPd35O_f7Xr-98" style="edgeStyle=orthogonalEdgeStyle;rounded=0;orthogonalLoop=1;jettySize=auto;html=1;exitX=1;exitY=0.5;exitDx=0;exitDy=0;exitPerimeter=0;entryX=0;entryY=0.5;entryDx=0;entryDy=0;" parent="1" source="FY5eDi_IWiPd35O_f7Xr-96" target="FY5eDi_IWiPd35O_f7Xr-92" edge="1">
          <mxGeometry relative="1" as="geometry" />
        </mxCell>
        <mxCell id="FY5eDi_IWiPd35O_f7Xr-96" value="" style="shape=image;verticalLabelPosition=bottom;labelBackgroundColor=default;verticalAlign=top;aspect=fixed;imageAspect=0;image=data:image/svg+xml,PHN2ZyB4bWxuczp4bGluaz0iaHR0cDovL3d3dy53My5vcmcvMTk5OS94bGluayIgeG1sbnM9Imh0dHA6Ly93d3cudzMub3JnLzIwMDAvc3ZnIiBoZWlnaHQ9IjIwMCIgd2lkdGg9IjIwMCIgdmVyc2lvbj0iMS4xIiB2aWV3Qm94PSIwIDAgMTAyNCAxMDI0IiBjbGFzcz0iaWNvbiI+PHBhdGggZmlsbD0iIzEwOEVFOSIgZD0iTTUxMiAwQzIyOS4yMjc1MiAwIDAgMjI5LjIyNzUyIDAgNTEyczIyOS4yMjc1MiA1MTIgNTEyIDUxMiA1MTItMjI5LjIyNzUyIDUxMi01MTJTNzk0Ljc3MjQ4IDAgNTEyIDB6IG0tNS45MzkyIDIzOC4wOGM3NC41Nzc5MiAwIDEzNS4yNDk5MiA2MC42NDY0IDEzNS4yNDk5MiAxMzUuMjI0MzIgMCA3NC41NTc0NC02MC42NzIgMTM1LjIzNDU2LTEzNS4yNDk5MiAxMzUuMjM0NTYtNzQuNTYyNTYgMC0xMzUuMjAzODQtNjAuNjc3MTItMTM1LjIwMzg0LTEzNS4yMzQ1NiAwLTc0LjU3NzkyIDYwLjY0MTI4LTEzNS4yMjQzMiAxMzUuMjAzODQtMTM1LjIyNDMyeiBtLTExLjk3MDU2IDM1My4yMTM0NGgzNi45MzU2OGw5LjYxNTM2IDEwNy43MjQ4LTI2Ljc3MjQ4IDM3LjY3Mjk2LTMwLjY1ODU2LTM3LjQxMTg0IDEwLjg4LTEwNy45ODU5MnogbS04LjQ3ODcyLTUxLjM1ODcyaDUyLjcyMDY0bC0xMi42ODIyNCAzNC4xMTk2OGgtMjcuNDk0NGwtMTIuNTQ0LTM0LjExOTY4eiBtLTIzMS45MzYgMjQ1Ljk4NTI4YzAtMTIxLjA5MzEyIDYyLjYwMjI0LTIxOC43MDU5MiAxNTcuMjU1NjgtMjQ2Ljk2MzJsMTAuNjI5MTIgMjkuMDM1NTJhMjU2LjQxOTg0IDI1Ni40MTk4NCAwIDAgMC0zMi40MDk2IDE0LjQ2OTEybDEyMy4zNDA4IDE5Mi4wOTcyOCAxMTQuNTAzNjgtMTk0LjY3Nzc2YTI1NS4yMTE1MiAyNTUuMjExNTIgMCAwIDAtMjkuMzA2ODgtMTIuNTg0OTZsMTAuMzg4NDgtMjkuMDg2NzJjMTE0Ljk0NCA0MS4wNzc3NiAxNjIuMjQ3NjggMTI1LjYwMzg0IDE2Mi4yNDc2OCAyNDcuNzE1ODRIMjUzLjY3NTUyeiIvPjwvc3ZnPg==;points=[[0,0,0,0,0],[0,0.25,0,0,0],[0,0.5,0,0,0],[0,0.75,0,0,0],[0,1,0,0,0],[0.25,0.07,0,0,0],[0.25,1,0,0,0],[0.5,0,0,0,0],[0.5,1,0,0,0],[0.75,0.07,0,0,0],[0.75,1,0,0,0],[1,0,0,0,0],[1,0.25,0,0,0],[1,0.5,0,0,0],[1,0.75,0,0,0],[1,1,0,0,0]];" parent="1" vertex="1">
          <mxGeometry x="1160" y="-1330" width="33" height="33" as="geometry" />
        </mxCell>
        <mxCell id="FY5eDi_IWiPd35O_f7Xr-99" value="A4-1" style="text;html=1;strokeColor=none;fillColor=none;align=center;verticalAlign=middle;whiteSpace=wrap;rounded=0;" parent="1" vertex="1">
          <mxGeometry x="1086.5" y="-1290" width="60" height="30" as="geometry" />
        </mxCell>
        <mxCell id="FY5eDi_IWiPd35O_f7Xr-100" value="A4-2" style="text;html=1;strokeColor=none;fillColor=none;align=center;verticalAlign=middle;whiteSpace=wrap;rounded=0;" parent="1" vertex="1">
          <mxGeometry x="1146.5" y="-1290" width="60" height="30" as="geometry" />
        </mxCell>
        <mxCell id="FY5eDi_IWiPd35O_f7Xr-101" value="A4-3&lt;br&gt;（Branch Control Agent）" style="text;html=1;strokeColor=none;fillColor=none;align=center;verticalAlign=middle;whiteSpace=wrap;rounded=0;" parent="1" vertex="1">
          <mxGeometry x="1220" y="-1288" width="110" height="30" as="geometry" />
        </mxCell>
        <mxCell id="FY5eDi_IWiPd35O_f7Xr-103" style="edgeStyle=orthogonalEdgeStyle;rounded=0;orthogonalLoop=1;jettySize=auto;html=1;exitX=1;exitY=0.5;exitDx=0;exitDy=0;entryX=0.9;entryY=0.438;entryDx=0;entryDy=0;entryPerimeter=0;" parent="1" source="FY5eDi_IWiPd35O_f7Xr-92" target="FY5eDi_IWiPd35O_f7Xr-70" edge="1">
          <mxGeometry relative="1" as="geometry" />
        </mxCell>
        <mxCell id="FY5eDi_IWiPd35O_f7Xr-104" style="edgeStyle=orthogonalEdgeStyle;rounded=0;orthogonalLoop=1;jettySize=auto;html=1;exitX=0.5;exitY=0;exitDx=0;exitDy=0;entryX=0.5;entryY=0;entryDx=0;entryDy=0;entryPerimeter=0;" parent="1" source="FY5eDi_IWiPd35O_f7Xr-92" target="FY5eDi_IWiPd35O_f7Xr-96" edge="1">
          <mxGeometry relative="1" as="geometry" />
        </mxCell>
        <mxCell id="FY5eDi_IWiPd35O_f7Xr-108" value="....." style="rounded=1;whiteSpace=wrap;html=1;arcSize=2;fontSize=56;" parent="1" vertex="1">
          <mxGeometry x="845.66" y="-1540" width="190" height="100" as="geometry" />
        </mxCell>
        <mxCell id="FY5eDi_IWiPd35O_f7Xr-109" value="" style="shape=image;verticalLabelPosition=bottom;labelBackgroundColor=default;verticalAlign=top;aspect=fixed;imageAspect=0;image=data:image/svg+xml,PHN2ZyB4bWxuczp4bGluaz0iaHR0cDovL3d3dy53My5vcmcvMTk5OS94bGluayIgeG1sbnM9Imh0dHA6Ly93d3cudzMub3JnLzIwMDAvc3ZnIiBoZWlnaHQ9IjIwMCIgd2lkdGg9IjIwMCIgdmVyc2lvbj0iMS4xIiB2aWV3Qm94PSIwIDAgMTAyNCAxMDI0IiBjbGFzcz0iaWNvbiI+PHBhdGggZmlsbD0iIzEwOEVFOSIgZD0iTTUxMiAwQzIyOS4yMjc1MiAwIDAgMjI5LjIyNzUyIDAgNTEyczIyOS4yMjc1MiA1MTIgNTEyIDUxMiA1MTItMjI5LjIyNzUyIDUxMi01MTJTNzk0Ljc3MjQ4IDAgNTEyIDB6IG0tNS45MzkyIDIzOC4wOGM3NC41Nzc5MiAwIDEzNS4yNDk5MiA2MC42NDY0IDEzNS4yNDk5MiAxMzUuMjI0MzIgMCA3NC41NTc0NC02MC42NzIgMTM1LjIzNDU2LTEzNS4yNDk5MiAxMzUuMjM0NTYtNzQuNTYyNTYgMC0xMzUuMjAzODQtNjAuNjc3MTItMTM1LjIwMzg0LTEzNS4yMzQ1NiAwLTc0LjU3NzkyIDYwLjY0MTI4LTEzNS4yMjQzMiAxMzUuMjAzODQtMTM1LjIyNDMyeiBtLTExLjk3MDU2IDM1My4yMTM0NGgzNi45MzU2OGw5LjYxNTM2IDEwNy43MjQ4LTI2Ljc3MjQ4IDM3LjY3Mjk2LTMwLjY1ODU2LTM3LjQxMTg0IDEwLjg4LTEwNy45ODU5MnogbS04LjQ3ODcyLTUxLjM1ODcyaDUyLjcyMDY0bC0xMi42ODIyNCAzNC4xMTk2OGgtMjcuNDk0NGwtMTIuNTQ0LTM0LjExOTY4eiBtLTIzMS45MzYgMjQ1Ljk4NTI4YzAtMTIxLjA5MzEyIDYyLjYwMjI0LTIxOC43MDU5MiAxNTcuMjU1NjgtMjQ2Ljk2MzJsMTAuNjI5MTIgMjkuMDM1NTJhMjU2LjQxOTg0IDI1Ni40MTk4NCAwIDAgMC0zMi40MDk2IDE0LjQ2OTEybDEyMy4zNDA4IDE5Mi4wOTcyOCAxMTQuNTAzNjgtMTk0LjY3Nzc2YTI1NS4yMTE1MiAyNTUuMjExNTIgMCAwIDAtMjkuMzA2ODgtMTIuNTg0OTZsMTAuMzg4NDgtMjkuMDg2NzJjMTE0Ljk0NCA0MS4wNzc3NiAxNjIuMjQ3NjggMTI1LjYwMzg0IDE2Mi4yNDc2OCAyNDcuNzE1ODRIMjUzLjY3NTUyeiIvPjwvc3ZnPg==;points=[[0,0,0,0,0],[0,0.25,0,0,0],[0,0.5,0,0,0],[0,0.75,0,0,0],[0,1,0,0,0],[0.25,0.07,0,0,0],[0.25,1,0,0,0],[0.5,0,0,0,0],[0.5,1,0,0,0],[0.75,0.07,0,0,0],[0.75,1,0,0,0],[1,0,0,0,0],[1,0.25,0,0,0],[1,0.5,0,0,0],[1,0.75,0,0,0],[1,1,0,0,0]];" parent="1" vertex="1">
          <mxGeometry x="862" y="-1490" width="33" height="33" as="geometry" />
        </mxCell>
        <mxCell id="FY5eDi_IWiPd35O_f7Xr-110" value="" style="shape=image;verticalLabelPosition=bottom;labelBackgroundColor=default;verticalAlign=top;aspect=fixed;imageAspect=0;image=data:image/svg+xml,PHN2ZyB4bWxuczp4bGluaz0iaHR0cDovL3d3dy53My5vcmcvMTk5OS94bGluayIgeG1sbnM9Imh0dHA6Ly93d3cudzMub3JnLzIwMDAvc3ZnIiBoZWlnaHQ9IjIwMCIgd2lkdGg9IjIwMCIgdmVyc2lvbj0iMS4xIiB2aWV3Qm94PSIwIDAgMTAyNCAxMDI0IiBjbGFzcz0iaWNvbiI+PHBhdGggZmlsbD0iIzEwOEVFOSIgZD0iTTUxMiAwQzIyOS4yMjc1MiAwIDAgMjI5LjIyNzUyIDAgNTEyczIyOS4yMjc1MiA1MTIgNTEyIDUxMiA1MTItMjI5LjIyNzUyIDUxMi01MTJTNzk0Ljc3MjQ4IDAgNTEyIDB6IG0tNS45MzkyIDIzOC4wOGM3NC41Nzc5MiAwIDEzNS4yNDk5MiA2MC42NDY0IDEzNS4yNDk5MiAxMzUuMjI0MzIgMCA3NC41NTc0NC02MC42NzIgMTM1LjIzNDU2LTEzNS4yNDk5MiAxMzUuMjM0NTYtNzQuNTYyNTYgMC0xMzUuMjAzODQtNjAuNjc3MTItMTM1LjIwMzg0LTEzNS4yMzQ1NiAwLTc0LjU3NzkyIDYwLjY0MTI4LTEzNS4yMjQzMiAxMzUuMjAzODQtMTM1LjIyNDMyeiBtLTExLjk3MDU2IDM1My4yMTM0NGgzNi45MzU2OGw5LjYxNTM2IDEwNy43MjQ4LTI2Ljc3MjQ4IDM3LjY3Mjk2LTMwLjY1ODU2LTM3LjQxMTg0IDEwLjg4LTEwNy45ODU5MnogbS04LjQ3ODcyLTUxLjM1ODcyaDUyLjcyMDY0bC0xMi42ODIyNCAzNC4xMTk2OGgtMjcuNDk0NGwtMTIuNTQ0LTM0LjExOTY4eiBtLTIzMS45MzYgMjQ1Ljk4NTI4YzAtMTIxLjA5MzEyIDYyLjYwMjI0LTIxOC43MDU5MiAxNTcuMjU1NjgtMjQ2Ljk2MzJsMTAuNjI5MTIgMjkuMDM1NTJhMjU2LjQxOTg0IDI1Ni40MTk4NCAwIDAgMC0zMi40MDk2IDE0LjQ2OTEybDEyMy4zNDA4IDE5Mi4wOTcyOCAxMTQuNTAzNjgtMTk0LjY3Nzc2YTI1NS4yMTE1MiAyNTUuMjExNTIgMCAwIDAtMjkuMzA2ODgtMTIuNTg0OTZsMTAuMzg4NDgtMjkuMDg2NzJjMTE0Ljk0NCA0MS4wNzc3NiAxNjIuMjQ3NjggMTI1LjYwMzg0IDE2Mi4yNDc2OCAyNDcuNzE1ODRIMjUzLjY3NTUyeiIvPjwvc3ZnPg==;points=[[0,0,0,0,0],[0,0.25,0,0,0],[0,0.5,0,0,0],[0,0.75,0,0,0],[0,1,0,0,0],[0.25,0.07,0,0,0],[0.25,1,0,0,0],[0.5,0,0,0,0],[0.5,1,0,0,0],[0.75,0.07,0,0,0],[0.75,1,0,0,0],[1,0,0,0,0],[1,0.25,0,0,0],[1,0.5,0,0,0],[1,0.75,0,0,0],[1,1,0,0,0]];" parent="1" vertex="1">
          <mxGeometry x="920.66" y="-1530" width="33" height="33" as="geometry" />
        </mxCell>
        <mxCell id="FY5eDi_IWiPd35O_f7Xr-112" value="" style="shape=image;verticalLabelPosition=bottom;labelBackgroundColor=default;verticalAlign=top;aspect=fixed;imageAspect=0;image=data:image/svg+xml,PHN2ZyB4bWxuczp4bGluaz0iaHR0cDovL3d3dy53My5vcmcvMTk5OS94bGluayIgeG1sbnM9Imh0dHA6Ly93d3cudzMub3JnLzIwMDAvc3ZnIiBoZWlnaHQ9IjIwMCIgd2lkdGg9IjIwMCIgdmVyc2lvbj0iMS4xIiB2aWV3Qm94PSIwIDAgMTAyNCAxMDI0IiBjbGFzcz0iaWNvbiI+PHBhdGggZmlsbD0iIzEwOEVFOSIgZD0iTTUxMiAwQzIyOS4yMjc1MiAwIDAgMjI5LjIyNzUyIDAgNTEyczIyOS4yMjc1MiA1MTIgNTEyIDUxMiA1MTItMjI5LjIyNzUyIDUxMi01MTJTNzk0Ljc3MjQ4IDAgNTEyIDB6IG0tNS45MzkyIDIzOC4wOGM3NC41Nzc5MiAwIDEzNS4yNDk5MiA2MC42NDY0IDEzNS4yNDk5MiAxMzUuMjI0MzIgMCA3NC41NTc0NC02MC42NzIgMTM1LjIzNDU2LTEzNS4yNDk5MiAxMzUuMjM0NTYtNzQuNTYyNTYgMC0xMzUuMjAzODQtNjAuNjc3MTItMTM1LjIwMzg0LTEzNS4yMzQ1NiAwLTc0LjU3NzkyIDYwLjY0MTI4LTEzNS4yMjQzMiAxMzUuMjAzODQtMTM1LjIyNDMyeiBtLTExLjk3MDU2IDM1My4yMTM0NGgzNi45MzU2OGw5LjYxNTM2IDEwNy43MjQ4LTI2Ljc3MjQ4IDM3LjY3Mjk2LTMwLjY1ODU2LTM3LjQxMTg0IDEwLjg4LTEwNy45ODU5MnogbS04LjQ3ODcyLTUxLjM1ODcyaDUyLjcyMDY0bC0xMi42ODIyNCAzNC4xMTk2OGgtMjcuNDk0NGwtMTIuNTQ0LTM0LjExOTY4eiBtLTIzMS45MzYgMjQ1Ljk4NTI4YzAtMTIxLjA5MzEyIDYyLjYwMjI0LTIxOC43MDU5MiAxNTcuMjU1NjgtMjQ2Ljk2MzJsMTAuNjI5MTIgMjkuMDM1NTJhMjU2LjQxOTg0IDI1Ni40MTk4NCAwIDAgMC0zMi40MDk2IDE0LjQ2OTEybDEyMy4zNDA4IDE5Mi4wOTcyOCAxMTQuNTAzNjgtMTk0LjY3Nzc2YTI1NS4yMTE1MiAyNTUuMjExNTIgMCAwIDAtMjkuMzA2ODgtMTIuNTg0OTZsMTAuMzg4NDgtMjkuMDg2NzJjMTE0Ljk0NCA0MS4wNzc3NiAxNjIuMjQ3NjggMTI1LjYwMzg0IDE2Mi4yNDc2OCAyNDcuNzE1ODRIMjUzLjY3NTUyeiIvPjwvc3ZnPg==;points=[[0,0,0,0,0],[0,0.25,0,0,0],[0,0.5,0,0,0],[0,0.75,0,0,0],[0,1,0,0,0],[0.25,0.07,0,0,0],[0.25,1,0,0,0],[0.5,0,0,0,0],[0.5,1,0,0,0],[0.75,0.07,0,0,0],[0.75,1,0,0,0],[1,0,0,0,0],[1,0.25,0,0,0],[1,0.5,0,0,0],[1,0.75,0,0,0],[1,1,0,0,0]];" parent="1" vertex="1">
          <mxGeometry x="982" y="-1490" width="33" height="33" as="geometry" />
        </mxCell>
        <mxCell id="FY5eDi_IWiPd35O_f7Xr-114" value="" style="endArrow=none;dashed=1;html=1;dashPattern=1 3;strokeWidth=2;rounded=0;exitX=1;exitY=1;exitDx=0;exitDy=0;" parent="1" source="FY5eDi_IWiPd35O_f7Xr-108" target="FY5eDi_IWiPd35O_f7Xr-49" edge="1">
          <mxGeometry width="50" height="50" relative="1" as="geometry">
            <mxPoint x="1030.5" y="-1459.5" as="sourcePoint" />
            <mxPoint x="1013.5" y="-1328.5" as="targetPoint" />
          </mxGeometry>
        </mxCell>
        <mxCell id="FY5eDi_IWiPd35O_f7Xr-115" value="" style="endArrow=none;dashed=1;html=1;dashPattern=1 3;strokeWidth=2;rounded=0;exitX=0;exitY=1;exitDx=0;exitDy=0;entryX=0.25;entryY=0.07;entryDx=0;entryDy=0;entryPerimeter=0;" parent="1" source="FY5eDi_IWiPd35O_f7Xr-108" target="FY5eDi_IWiPd35O_f7Xr-49" edge="1">
          <mxGeometry width="50" height="50" relative="1" as="geometry">
            <mxPoint x="845" y="-1492" as="sourcePoint" />
            <mxPoint x="1227" y="-1361" as="targetPoint" />
          </mxGeometry>
        </mxCell>
        <mxCell id="FY5eDi_IWiPd35O_f7Xr-116" value="&lt;font style=&quot;font-size: 56px;&quot;&gt;.....&lt;/font&gt;" style="rounded=1;whiteSpace=wrap;html=1;arcSize=2;" parent="1" vertex="1">
          <mxGeometry x="870" y="-1650" width="141.32" height="60" as="geometry" />
        </mxCell>
        <mxCell id="FY5eDi_IWiPd35O_f7Xr-117" value="" style="endArrow=none;dashed=1;html=1;dashPattern=1 3;strokeWidth=2;rounded=0;exitX=1;exitY=1;exitDx=0;exitDy=0;entryX=0.75;entryY=0.07;entryDx=0;entryDy=0;entryPerimeter=0;" parent="1" source="FY5eDi_IWiPd35O_f7Xr-116" target="FY5eDi_IWiPd35O_f7Xr-110" edge="1">
          <mxGeometry width="50" height="50" relative="1" as="geometry">
            <mxPoint x="1036" y="-1590" as="sourcePoint" />
            <mxPoint x="956" y="-1517" as="targetPoint" />
          </mxGeometry>
        </mxCell>
        <mxCell id="FY5eDi_IWiPd35O_f7Xr-118" value="" style="endArrow=none;dashed=1;html=1;dashPattern=1 3;strokeWidth=2;rounded=0;exitX=0;exitY=1;exitDx=0;exitDy=0;entryX=0.25;entryY=0.07;entryDx=0;entryDy=0;entryPerimeter=0;" parent="1" source="FY5eDi_IWiPd35O_f7Xr-116" target="FY5eDi_IWiPd35O_f7Xr-110" edge="1">
          <mxGeometry width="50" height="50" relative="1" as="geometry">
            <mxPoint x="848.5" y="-1580" as="sourcePoint" />
            <mxPoint x="933.5" y="-1506" as="targetPoint" />
          </mxGeometry>
        </mxCell>
        <mxCell id="FY5eDi_IWiPd35O_f7Xr-119" value="A5-2-1" style="text;html=1;strokeColor=none;fillColor=none;align=center;verticalAlign=middle;whiteSpace=wrap;rounded=0;" parent="1" vertex="1">
          <mxGeometry x="953.66" y="-1527" width="60" height="30" as="geometry" />
        </mxCell>
        <mxCell id="FY5eDi_IWiPd35O_f7Xr-120" value="A5-2-2" style="text;html=1;strokeColor=none;fillColor=none;align=center;verticalAlign=middle;whiteSpace=wrap;rounded=0;" parent="1" vertex="1">
          <mxGeometry x="846.66" y="-1465" width="60" height="30" as="geometry" />
        </mxCell>
        <mxCell id="FY5eDi_IWiPd35O_f7Xr-121" value="A5-2-X" style="text;html=1;strokeColor=none;fillColor=none;align=center;verticalAlign=middle;whiteSpace=wrap;rounded=0;" parent="1" vertex="1">
          <mxGeometry x="967" y="-1465" width="60" height="30" as="geometry" />
        </mxCell>
        <mxCell id="FY5eDi_IWiPd35O_f7Xr-122" value="World Agent&lt;br&gt;（The Matrix）" style="text;html=1;strokeColor=none;fillColor=none;align=center;verticalAlign=middle;whiteSpace=wrap;rounded=0;" parent="1" vertex="1">
          <mxGeometry x="1062" y="-770" width="108" height="30" as="geometry" />
        </mxCell>
        <mxCell id="FY5eDi_IWiPd35O_f7Xr-123" value="....." style="rounded=1;whiteSpace=wrap;html=1;arcSize=2;fontSize=56;" parent="1" vertex="1">
          <mxGeometry x="1080" y="-1540" width="190" height="100" as="geometry" />
        </mxCell>
        <mxCell id="FY5eDi_IWiPd35O_f7Xr-124" value="" style="shape=image;verticalLabelPosition=bottom;labelBackgroundColor=default;verticalAlign=top;aspect=fixed;imageAspect=0;image=data:image/svg+xml,PHN2ZyB4bWxuczp4bGluaz0iaHR0cDovL3d3dy53My5vcmcvMTk5OS94bGluayIgeG1sbnM9Imh0dHA6Ly93d3cudzMub3JnLzIwMDAvc3ZnIiBoZWlnaHQ9IjIwMCIgd2lkdGg9IjIwMCIgdmVyc2lvbj0iMS4xIiB2aWV3Qm94PSIwIDAgMTAyNCAxMDI0IiBjbGFzcz0iaWNvbiI+PHBhdGggZmlsbD0iIzEwOEVFOSIgZD0iTTUxMiAwQzIyOS4yMjc1MiAwIDAgMjI5LjIyNzUyIDAgNTEyczIyOS4yMjc1MiA1MTIgNTEyIDUxMiA1MTItMjI5LjIyNzUyIDUxMi01MTJTNzk0Ljc3MjQ4IDAgNTEyIDB6IG0tNS45MzkyIDIzOC4wOGM3NC41Nzc5MiAwIDEzNS4yNDk5MiA2MC42NDY0IDEzNS4yNDk5MiAxMzUuMjI0MzIgMCA3NC41NTc0NC02MC42NzIgMTM1LjIzNDU2LTEzNS4yNDk5MiAxMzUuMjM0NTYtNzQuNTYyNTYgMC0xMzUuMjAzODQtNjAuNjc3MTItMTM1LjIwMzg0LTEzNS4yMzQ1NiAwLTc0LjU3NzkyIDYwLjY0MTI4LTEzNS4yMjQzMiAxMzUuMjAzODQtMTM1LjIyNDMyeiBtLTExLjk3MDU2IDM1My4yMTM0NGgzNi45MzU2OGw5LjYxNTM2IDEwNy43MjQ4LTI2Ljc3MjQ4IDM3LjY3Mjk2LTMwLjY1ODU2LTM3LjQxMTg0IDEwLjg4LTEwNy45ODU5MnogbS04LjQ3ODcyLTUxLjM1ODcyaDUyLjcyMDY0bC0xMi42ODIyNCAzNC4xMTk2OGgtMjcuNDk0NGwtMTIuNTQ0LTM0LjExOTY4eiBtLTIzMS45MzYgMjQ1Ljk4NTI4YzAtMTIxLjA5MzEyIDYyLjYwMjI0LTIxOC43MDU5MiAxNTcuMjU1NjgtMjQ2Ljk2MzJsMTAuNjI5MTIgMjkuMDM1NTJhMjU2LjQxOTg0IDI1Ni40MTk4NCAwIDAgMC0zMi40MDk2IDE0LjQ2OTEybDEyMy4zNDA4IDE5Mi4wOTcyOCAxMTQuNTAzNjgtMTk0LjY3Nzc2YTI1NS4yMTE1MiAyNTUuMjExNTIgMCAwIDAtMjkuMzA2ODgtMTIuNTg0OTZsMTAuMzg4NDgtMjkuMDg2NzJjMTE0Ljk0NCA0MS4wNzc3NiAxNjIuMjQ3NjggMTI1LjYwMzg0IDE2Mi4yNDc2OCAyNDcuNzE1ODRIMjUzLjY3NTUyeiIvPjwvc3ZnPg==;points=[[0,0,0,0,0],[0,0.25,0,0,0],[0,0.5,0,0,0],[0,0.75,0,0,0],[0,1,0,0,0],[0.25,0.07,0,0,0],[0.25,1,0,0,0],[0.5,0,0,0,0],[0.5,1,0,0,0],[0.75,0.07,0,0,0],[0.75,1,0,0,0],[1,0,0,0,0],[1,0.25,0,0,0],[1,0.5,0,0,0],[1,0.75,0,0,0],[1,1,0,0,0]];" parent="1" vertex="1">
          <mxGeometry x="1096.34" y="-1490" width="33" height="33" as="geometry" />
        </mxCell>
        <mxCell id="FY5eDi_IWiPd35O_f7Xr-125" value="" style="shape=image;verticalLabelPosition=bottom;labelBackgroundColor=default;verticalAlign=top;aspect=fixed;imageAspect=0;image=data:image/svg+xml,PHN2ZyB4bWxuczp4bGluaz0iaHR0cDovL3d3dy53My5vcmcvMTk5OS94bGluayIgeG1sbnM9Imh0dHA6Ly93d3cudzMub3JnLzIwMDAvc3ZnIiBoZWlnaHQ9IjIwMCIgd2lkdGg9IjIwMCIgdmVyc2lvbj0iMS4xIiB2aWV3Qm94PSIwIDAgMTAyNCAxMDI0IiBjbGFzcz0iaWNvbiI+PHBhdGggZmlsbD0iIzEwOEVFOSIgZD0iTTUxMiAwQzIyOS4yMjc1MiAwIDAgMjI5LjIyNzUyIDAgNTEyczIyOS4yMjc1MiA1MTIgNTEyIDUxMiA1MTItMjI5LjIyNzUyIDUxMi01MTJTNzk0Ljc3MjQ4IDAgNTEyIDB6IG0tNS45MzkyIDIzOC4wOGM3NC41Nzc5MiAwIDEzNS4yNDk5MiA2MC42NDY0IDEzNS4yNDk5MiAxMzUuMjI0MzIgMCA3NC41NTc0NC02MC42NzIgMTM1LjIzNDU2LTEzNS4yNDk5MiAxMzUuMjM0NTYtNzQuNTYyNTYgMC0xMzUuMjAzODQtNjAuNjc3MTItMTM1LjIwMzg0LTEzNS4yMzQ1NiAwLTc0LjU3NzkyIDYwLjY0MTI4LTEzNS4yMjQzMiAxMzUuMjAzODQtMTM1LjIyNDMyeiBtLTExLjk3MDU2IDM1My4yMTM0NGgzNi45MzU2OGw5LjYxNTM2IDEwNy43MjQ4LTI2Ljc3MjQ4IDM3LjY3Mjk2LTMwLjY1ODU2LTM3LjQxMTg0IDEwLjg4LTEwNy45ODU5MnogbS04LjQ3ODcyLTUxLjM1ODcyaDUyLjcyMDY0bC0xMi42ODIyNCAzNC4xMTk2OGgtMjcuNDk0NGwtMTIuNTQ0LTM0LjExOTY4eiBtLTIzMS45MzYgMjQ1Ljk4NTI4YzAtMTIxLjA5MzEyIDYyLjYwMjI0LTIxOC43MDU5MiAxNTcuMjU1NjgtMjQ2Ljk2MzJsMTAuNjI5MTIgMjkuMDM1NTJhMjU2LjQxOTg0IDI1Ni40MTk4NCAwIDAgMC0zMi40MDk2IDE0LjQ2OTEybDEyMy4zNDA4IDE5Mi4wOTcyOCAxMTQuNTAzNjgtMTk0LjY3Nzc2YTI1NS4yMTE1MiAyNTUuMjExNTIgMCAwIDAtMjkuMzA2ODgtMTIuNTg0OTZsMTAuMzg4NDgtMjkuMDg2NzJjMTE0Ljk0NCA0MS4wNzc3NiAxNjIuMjQ3NjggMTI1LjYwMzg0IDE2Mi4yNDc2OCAyNDcuNzE1ODRIMjUzLjY3NTUyeiIvPjwvc3ZnPg==;points=[[0,0,0,0,0],[0,0.25,0,0,0],[0,0.5,0,0,0],[0,0.75,0,0,0],[0,1,0,0,0],[0.25,0.07,0,0,0],[0.25,1,0,0,0],[0.5,0,0,0,0],[0.5,1,0,0,0],[0.75,0.07,0,0,0],[0.75,1,0,0,0],[1,0,0,0,0],[1,0.25,0,0,0],[1,0.5,0,0,0],[1,0.75,0,0,0],[1,1,0,0,0]];" parent="1" vertex="1">
          <mxGeometry x="1155" y="-1530" width="33" height="33" as="geometry" />
        </mxCell>
        <mxCell id="FY5eDi_IWiPd35O_f7Xr-126" value="" style="shape=image;verticalLabelPosition=bottom;labelBackgroundColor=default;verticalAlign=top;aspect=fixed;imageAspect=0;image=data:image/svg+xml,PHN2ZyB4bWxuczp4bGluaz0iaHR0cDovL3d3dy53My5vcmcvMTk5OS94bGluayIgeG1sbnM9Imh0dHA6Ly93d3cudzMub3JnLzIwMDAvc3ZnIiBoZWlnaHQ9IjIwMCIgd2lkdGg9IjIwMCIgdmVyc2lvbj0iMS4xIiB2aWV3Qm94PSIwIDAgMTAyNCAxMDI0IiBjbGFzcz0iaWNvbiI+PHBhdGggZmlsbD0iIzEwOEVFOSIgZD0iTTUxMiAwQzIyOS4yMjc1MiAwIDAgMjI5LjIyNzUyIDAgNTEyczIyOS4yMjc1MiA1MTIgNTEyIDUxMiA1MTItMjI5LjIyNzUyIDUxMi01MTJTNzk0Ljc3MjQ4IDAgNTEyIDB6IG0tNS45MzkyIDIzOC4wOGM3NC41Nzc5MiAwIDEzNS4yNDk5MiA2MC42NDY0IDEzNS4yNDk5MiAxMzUuMjI0MzIgMCA3NC41NTc0NC02MC42NzIgMTM1LjIzNDU2LTEzNS4yNDk5MiAxMzUuMjM0NTYtNzQuNTYyNTYgMC0xMzUuMjAzODQtNjAuNjc3MTItMTM1LjIwMzg0LTEzNS4yMzQ1NiAwLTc0LjU3NzkyIDYwLjY0MTI4LTEzNS4yMjQzMiAxMzUuMjAzODQtMTM1LjIyNDMyeiBtLTExLjk3MDU2IDM1My4yMTM0NGgzNi45MzU2OGw5LjYxNTM2IDEwNy43MjQ4LTI2Ljc3MjQ4IDM3LjY3Mjk2LTMwLjY1ODU2LTM3LjQxMTg0IDEwLjg4LTEwNy45ODU5MnogbS04LjQ3ODcyLTUxLjM1ODcyaDUyLjcyMDY0bC0xMi42ODIyNCAzNC4xMTk2OGgtMjcuNDk0NGwtMTIuNTQ0LTM0LjExOTY4eiBtLTIzMS45MzYgMjQ1Ljk4NTI4YzAtMTIxLjA5MzEyIDYyLjYwMjI0LTIxOC43MDU5MiAxNTcuMjU1NjgtMjQ2Ljk2MzJsMTAuNjI5MTIgMjkuMDM1NTJhMjU2LjQxOTg0IDI1Ni40MTk4NCAwIDAgMC0zMi40MDk2IDE0LjQ2OTEybDEyMy4zNDA4IDE5Mi4wOTcyOCAxMTQuNTAzNjgtMTk0LjY3Nzc2YTI1NS4yMTE1MiAyNTUuMjExNTIgMCAwIDAtMjkuMzA2ODgtMTIuNTg0OTZsMTAuMzg4NDgtMjkuMDg2NzJjMTE0Ljk0NCA0MS4wNzc3NiAxNjIuMjQ3NjggMTI1LjYwMzg0IDE2Mi4yNDc2OCAyNDcuNzE1ODRIMjUzLjY3NTUyeiIvPjwvc3ZnPg==;points=[[0,0,0,0,0],[0,0.25,0,0,0],[0,0.5,0,0,0],[0,0.75,0,0,0],[0,1,0,0,0],[0.25,0.07,0,0,0],[0.25,1,0,0,0],[0.5,0,0,0,0],[0.5,1,0,0,0],[0.75,0.07,0,0,0],[0.75,1,0,0,0],[1,0,0,0,0],[1,0.25,0,0,0],[1,0.5,0,0,0],[1,0.75,0,0,0],[1,1,0,0,0]];" parent="1" vertex="1">
          <mxGeometry x="1216.34" y="-1490" width="33" height="33" as="geometry" />
        </mxCell>
        <mxCell id="FY5eDi_IWiPd35O_f7Xr-127" value="" style="endArrow=none;dashed=1;html=1;dashPattern=1 3;strokeWidth=2;rounded=0;exitX=1;exitY=1;exitDx=0;exitDy=0;entryX=0.75;entryY=0.07;entryDx=0;entryDy=0;entryPerimeter=0;" parent="1" source="FY5eDi_IWiPd35O_f7Xr-123" target="FY5eDi_IWiPd35O_f7Xr-90" edge="1">
          <mxGeometry width="50" height="50" relative="1" as="geometry">
            <mxPoint x="1264.84" y="-1459.5" as="sourcePoint" />
            <mxPoint x="1202.34" y="-1368" as="targetPoint" />
          </mxGeometry>
        </mxCell>
        <mxCell id="FY5eDi_IWiPd35O_f7Xr-128" value="" style="endArrow=none;dashed=1;html=1;dashPattern=1 3;strokeWidth=2;rounded=0;exitX=0;exitY=1;exitDx=0;exitDy=0;entryX=0.25;entryY=0.07;entryDx=0;entryDy=0;entryPerimeter=0;" parent="1" source="FY5eDi_IWiPd35O_f7Xr-123" target="FY5eDi_IWiPd35O_f7Xr-90" edge="1">
          <mxGeometry width="50" height="50" relative="1" as="geometry">
            <mxPoint x="1079.34" y="-1492" as="sourcePoint" />
            <mxPoint x="1178.34" y="-1366" as="targetPoint" />
          </mxGeometry>
        </mxCell>
        <mxCell id="FY5eDi_IWiPd35O_f7Xr-129" value="&lt;font style=&quot;font-size: 56px;&quot;&gt;.....&lt;/font&gt;" style="rounded=1;whiteSpace=wrap;html=1;arcSize=2;" parent="1" vertex="1">
          <mxGeometry x="1110" y="-1650" width="130" height="60" as="geometry" />
        </mxCell>
        <mxCell id="FY5eDi_IWiPd35O_f7Xr-130" value="" style="endArrow=none;dashed=1;html=1;dashPattern=1 3;strokeWidth=2;rounded=0;exitX=1;exitY=1;exitDx=0;exitDy=0;entryX=0.75;entryY=0.07;entryDx=0;entryDy=0;entryPerimeter=0;" parent="1" source="FY5eDi_IWiPd35O_f7Xr-129" target="FY5eDi_IWiPd35O_f7Xr-125" edge="1">
          <mxGeometry width="50" height="50" relative="1" as="geometry">
            <mxPoint x="1270.34" y="-1590" as="sourcePoint" />
            <mxPoint x="1190.34" y="-1517" as="targetPoint" />
          </mxGeometry>
        </mxCell>
        <mxCell id="FY5eDi_IWiPd35O_f7Xr-131" value="" style="endArrow=none;dashed=1;html=1;dashPattern=1 3;strokeWidth=2;rounded=0;exitX=0;exitY=1;exitDx=0;exitDy=0;entryX=0.25;entryY=0.07;entryDx=0;entryDy=0;entryPerimeter=0;" parent="1" source="FY5eDi_IWiPd35O_f7Xr-129" target="FY5eDi_IWiPd35O_f7Xr-125" edge="1">
          <mxGeometry width="50" height="50" relative="1" as="geometry">
            <mxPoint x="1082.84" y="-1580" as="sourcePoint" />
            <mxPoint x="1167.84" y="-1506" as="targetPoint" />
          </mxGeometry>
        </mxCell>
        <mxCell id="FY5eDi_IWiPd35O_f7Xr-132" value="A4-1-1" style="text;html=1;strokeColor=none;fillColor=none;align=center;verticalAlign=middle;whiteSpace=wrap;rounded=0;" parent="1" vertex="1">
          <mxGeometry x="1188" y="-1527" width="60" height="30" as="geometry" />
        </mxCell>
        <mxCell id="FY5eDi_IWiPd35O_f7Xr-133" value="A4-1-2" style="text;html=1;strokeColor=none;fillColor=none;align=center;verticalAlign=middle;whiteSpace=wrap;rounded=0;" parent="1" vertex="1">
          <mxGeometry x="1081" y="-1465" width="60" height="30" as="geometry" />
        </mxCell>
        <mxCell id="FY5eDi_IWiPd35O_f7Xr-134" value="A4-1-X" style="text;html=1;strokeColor=none;fillColor=none;align=center;verticalAlign=middle;whiteSpace=wrap;rounded=0;" parent="1" vertex="1">
          <mxGeometry x="1201.34" y="-1465" width="60" height="30" as="geometry" />
        </mxCell>
        <mxCell id="FY5eDi_IWiPd35O_f7Xr-135" value="" style="shape=image;verticalLabelPosition=bottom;labelBackgroundColor=default;verticalAlign=top;aspect=fixed;imageAspect=0;image=data:image/svg+xml,PHN2ZyB4bWxuczp4bGluaz0iaHR0cDovL3d3dy53My5vcmcvMTk5OS94bGluayIgeG1sbnM9Imh0dHA6Ly93d3cudzMub3JnLzIwMDAvc3ZnIiBoZWlnaHQ9IjIwMCIgd2lkdGg9IjIwMCIgdmVyc2lvbj0iMS4xIiB2aWV3Qm94PSIwIDAgMTAyNCAxMDI0IiBjbGFzcz0iaWNvbiI+PHBhdGggZD0iTTkyNi43MiA4MjkuNDRxMjguNjcyIDMyLjc2OCAzMS4yMzIgNTcuMzQ0dC0xOC45NDQgNDguMTI4cS0yNC41NzYgMjcuNjQ4LTU0LjI3MiAyNi4xMTJ0LTU3LjM0NC0yNC4wNjRsLTE2NC44NjQtMTU4LjcycS00Ni4wOCAzMC43Mi05OS44NCA0Ny42MTZ0LTExMy4xNTIgMTYuODk2cS04MC44OTYgMC0xNTEuNTUyLTMwLjcydC0xMjMuMzkyLTgzLjQ1Ni04Mi45NDQtMTIzLjM5Mi0zMC4yMDgtMTUxLjU1MnEwLTc5Ljg3MiAzMC4yMDgtMTUwLjUyOHQ4Mi45NDQtMTIzLjM5MiAxMjMuMzkyLTgzLjQ1NiAxNTEuNTUyLTMwLjcyIDE1MS41NTIgMzAuNzIgMTIzLjM5MiA4My40NTYgODMuNDU2IDEyMy4zOTIgMzAuNzIgMTUwLjUyOHEwIDYxLjQ0LTE3LjkyIDExNi43MzZ0LTQ5LjY2NCAxMDEuMzc2cTEzLjMxMiAxNC4zMzYgMzcuMzc2IDM4LjR0NDguMTI4IDQ4LjY0IDQ0LjU0NCA0NC4wMzJ6TTQ0OS41MzYgNzA1LjUzNnE1My4yNDggMCAxMDAuMzUyLTE5Ljk2OHQ4MS45Mi01NC43ODQgNTQuNzg0LTgxLjkyIDE5Ljk2OC0xMDAuMzUyLTE5Ljk2OC0xMDAuMzUyLTU0Ljc4NC04MS45Mi04MS45Mi01NC43ODQtMTAwLjM1Mi0xOS45NjgtOTkuODQgMTkuOTY4LTgxLjQwOCA1NC43ODQtNTUuMjk2IDgxLjkyLTIwLjQ4IDEwMC4zNTIgMjAuNDggMTAwLjM1MiA1NS4yOTYgODEuOTIgODEuNDA4IDU0Ljc4NCA5OS44NCAxOS45Njh6TTUxMiAzODRsMTI4IDAgMCAxMjgtMTI4IDAgMCAxMjgtMTI5LjAyNCAwIDAtMTI4LTEyNi45NzYgMCAwLTEyOCAxMjYuOTc2IDAgMC0xMjggMTI5LjAyNCAwIDAgMTI4eiIvPjwvc3ZnPg==;" parent="1" vertex="1">
          <mxGeometry x="995.66" y="-1180" width="40" height="40" as="geometry" />
        </mxCell>
        <mxCell id="FY5eDi_IWiPd35O_f7Xr-136" value="" style="shape=image;verticalLabelPosition=bottom;labelBackgroundColor=default;verticalAlign=top;aspect=fixed;imageAspect=0;image=data:image/svg+xml,PHN2ZyB4bWxuczp4bGluaz0iaHR0cDovL3d3dy53My5vcmcvMTk5OS94bGluayIgeG1sbnM9Imh0dHA6Ly93d3cudzMub3JnLzIwMDAvc3ZnIiBoZWlnaHQ9IjIwMCIgd2lkdGg9IjIwMCIgdmVyc2lvbj0iMS4xIiB2aWV3Qm94PSIwIDAgMTAyNCAxMDI0IiBjbGFzcz0iaWNvbiI+PHBhdGggZD0iTTkyNi43MiA4MjkuNDRxMjguNjcyIDMyLjc2OCAzMS4yMzIgNTcuMzQ0dC0xOC45NDQgNDguMTI4cS0yNC41NzYgMjcuNjQ4LTU0LjI3MiAyNi4xMTJ0LTU3LjM0NC0yNC4wNjRsLTE2NC44NjQtMTU4LjcycS00Ni4wOCAzMC43Mi05OS44NCA0Ny42MTZ0LTExMy4xNTIgMTYuODk2cS04MC44OTYgMC0xNTEuNTUyLTMwLjcydC0xMjMuMzkyLTgzLjQ1Ni04Mi45NDQtMTIzLjM5Mi0zMC4yMDgtMTUxLjU1MnEwLTc5Ljg3MiAzMC4yMDgtMTUwLjUyOHQ4Mi45NDQtMTIzLjM5MiAxMjMuMzkyLTgzLjQ1NiAxNTEuNTUyLTMwLjcyIDE1MS41NTIgMzAuNzIgMTIzLjM5MiA4My40NTYgODMuNDU2IDEyMy4zOTIgMzAuNzIgMTUwLjUyOHEwIDYxLjQ0LTE3LjkyIDExNi43MzZ0LTQ5LjY2NCAxMDEuMzc2cTEzLjMxMiAxNC4zMzYgMzcuMzc2IDM4LjR0NDguMTI4IDQ4LjY0IDQ0LjU0NCA0NC4wMzJ6TTQ0OS41MzYgNzA1LjUzNnE1My4yNDggMCAxMDAuMzUyLTE5Ljk2OHQ4MS45Mi01NC43ODQgNTQuNzg0LTgxLjkyIDE5Ljk2OC0xMDAuMzUyLTE5Ljk2OC0xMDAuMzUyLTU0Ljc4NC04MS45Mi04MS45Mi01NC43ODQtMTAwLjM1Mi0xOS45NjgtOTkuODQgMTkuOTY4LTgxLjQwOCA1NC43ODQtNTUuMjk2IDgxLjkyLTIwLjQ4IDEwMC4zNTIgMjAuNDggMTAwLjM1MiA1NS4yOTYgODEuOTIgODEuNDA4IDU0Ljc4NCA5OS44NCAxOS45Njh6TTUxMiAzODRsMTI4IDAgMCAxMjgtMTI4IDAgMCAxMjgtMTI5LjAyNCAwIDAtMTI4LTEyNi45NzYgMCAwLTEyOCAxMjYuOTc2IDAgMC0xMjggMTI5LjAyNCAwIDAgMTI4eiIvPjwvc3ZnPg==;" parent="1" vertex="1">
          <mxGeometry x="1270" y="-1190" width="40" height="40" as="geometry" />
        </mxCell>
        <mxCell id="FY5eDi_IWiPd35O_f7Xr-138" value="" style="shape=image;verticalLabelPosition=bottom;labelBackgroundColor=default;verticalAlign=top;aspect=fixed;imageAspect=0;image=data:image/svg+xml,PHN2ZyB4bWxuczp4bGluaz0iaHR0cDovL3d3dy53My5vcmcvMTk5OS94bGluayIgeG1sbnM9Imh0dHA6Ly93d3cudzMub3JnLzIwMDAvc3ZnIiBoZWlnaHQ9IjIwMCIgd2lkdGg9IjIwMCIgdmVyc2lvbj0iMS4xIiB2aWV3Qm94PSIwIDAgMTAyNCAxMDI0IiBjbGFzcz0iaWNvbiI+PHBhdGggZD0iTTkyNi43MiA4MjkuNDRxMjguNjcyIDMyLjc2OCAzMS4yMzIgNTcuMzQ0dC0xOC45NDQgNDguMTI4cS0yNC41NzYgMjcuNjQ4LTU0LjI3MiAyNi4xMTJ0LTU3LjM0NC0yNC4wNjRsLTE2NC44NjQtMTU4LjcycS00Ni4wOCAzMC43Mi05OS44NCA0Ny42MTZ0LTExMy4xNTIgMTYuODk2cS04MC44OTYgMC0xNTEuNTUyLTMwLjcydC0xMjMuMzkyLTgzLjQ1Ni04Mi45NDQtMTIzLjM5Mi0zMC4yMDgtMTUxLjU1MnEwLTc5Ljg3MiAzMC4yMDgtMTUwLjUyOHQ4Mi45NDQtMTIzLjM5MiAxMjMuMzkyLTgzLjQ1NiAxNTEuNTUyLTMwLjcyIDE1MS41NTIgMzAuNzIgMTIzLjM5MiA4My40NTYgODMuNDU2IDEyMy4zOTIgMzAuNzIgMTUwLjUyOHEwIDYxLjQ0LTE3LjkyIDExNi43MzZ0LTQ5LjY2NCAxMDEuMzc2cTEzLjMxMiAxNC4zMzYgMzcuMzc2IDM4LjR0NDguMTI4IDQ4LjY0IDQ0LjU0NCA0NC4wMzJ6TTQ0OS41MzYgNzA1LjUzNnE1My4yNDggMCAxMDAuMzUyLTE5Ljk2OHQ4MS45Mi01NC43ODQgNTQuNzg0LTgxLjkyIDE5Ljk2OC0xMDAuMzUyLTE5Ljk2OC0xMDAuMzUyLTU0Ljc4NC04MS45Mi04MS45Mi01NC43ODQtMTAwLjM1Mi0xOS45NjgtOTkuODQgMTkuOTY4LTgxLjQwOCA1NC43ODQtNTUuMjk2IDgxLjkyLTIwLjQ4IDEwMC4zNTIgMjAuNDggMTAwLjM1MiA1NS4yOTYgODEuOTIgODEuNDA4IDU0Ljc4NCA5OS44NCAxOS45Njh6TTUxMiAzODRsMTI4IDAgMCAxMjgtMTI4IDAgMCAxMjgtMTI5LjAyNCAwIDAtMTI4LTEyNi45NzYgMCAwLTEyOCAxMjYuOTc2IDAgMC0xMjggMTI5LjAyNCAwIDAgMTI4eiIvPjwvc3ZnPg==;" parent="1" vertex="1">
          <mxGeometry x="1193" y="-1581" width="20" height="20" as="geometry" />
        </mxCell>
        <mxCell id="FY5eDi_IWiPd35O_f7Xr-139" value="" style="shape=image;verticalLabelPosition=bottom;labelBackgroundColor=default;verticalAlign=top;aspect=fixed;imageAspect=0;image=data:image/svg+xml,PHN2ZyB4bWxuczp4bGluaz0iaHR0cDovL3d3dy53My5vcmcvMTk5OS94bGluayIgeG1sbnM9Imh0dHA6Ly93d3cudzMub3JnLzIwMDAvc3ZnIiBoZWlnaHQ9IjIwMCIgd2lkdGg9IjIwMCIgdmVyc2lvbj0iMS4xIiB2aWV3Qm94PSIwIDAgMTAyNCAxMDI0IiBjbGFzcz0iaWNvbiI+PHBhdGggZD0iTTkyNi43MiA4MjkuNDRxMjguNjcyIDMyLjc2OCAzMS4yMzIgNTcuMzQ0dC0xOC45NDQgNDguMTI4cS0yNC41NzYgMjcuNjQ4LTU0LjI3MiAyNi4xMTJ0LTU3LjM0NC0yNC4wNjRsLTE2NC44NjQtMTU4LjcycS00Ni4wOCAzMC43Mi05OS44NCA0Ny42MTZ0LTExMy4xNTIgMTYuODk2cS04MC44OTYgMC0xNTEuNTUyLTMwLjcydC0xMjMuMzkyLTgzLjQ1Ni04Mi45NDQtMTIzLjM5Mi0zMC4yMDgtMTUxLjU1MnEwLTc5Ljg3MiAzMC4yMDgtMTUwLjUyOHQ4Mi45NDQtMTIzLjM5MiAxMjMuMzkyLTgzLjQ1NiAxNTEuNTUyLTMwLjcyIDE1MS41NTIgMzAuNzIgMTIzLjM5MiA4My40NTYgODMuNDU2IDEyMy4zOTIgMzAuNzIgMTUwLjUyOHEwIDYxLjQ0LTE3LjkyIDExNi43MzZ0LTQ5LjY2NCAxMDEuMzc2cTEzLjMxMiAxNC4zMzYgMzcuMzc2IDM4LjR0NDguMTI4IDQ4LjY0IDQ0LjU0NCA0NC4wMzJ6TTQ0OS41MzYgNzA1LjUzNnE1My4yNDggMCAxMDAuMzUyLTE5Ljk2OHQ4MS45Mi01NC43ODQgNTQuNzg0LTgxLjkyIDE5Ljk2OC0xMDAuMzUyLTE5Ljk2OC0xMDAuMzUyLTU0Ljc4NC04MS45Mi04MS45Mi01NC43ODQtMTAwLjM1Mi0xOS45NjgtOTkuODQgMTkuOTY4LTgxLjQwOCA1NC43ODQtNTUuMjk2IDgxLjkyLTIwLjQ4IDEwMC4zNTIgMjAuNDggMTAwLjM1MiA1NS4yOTYgODEuOTIgODEuNDA4IDU0Ljc4NCA5OS44NCAxOS45Njh6TTUxMiAzODRsMTI4IDAgMCAxMjgtMTI4IDAgMCAxMjgtMTI5LjAyNCAwIDAtMTI4LTEyNi45NzYgMCAwLTEyOCAxMjYuOTc2IDAgMC0xMjggMTI5LjAyNCAwIDAgMTI4eiIvPjwvc3ZnPg==;" parent="1" vertex="1">
          <mxGeometry x="962" y="-1581" width="20" height="20" as="geometry" />
        </mxCell>
        <mxCell id="FY5eDi_IWiPd35O_f7Xr-153" value="" style="shape=image;verticalLabelPosition=bottom;labelBackgroundColor=default;verticalAlign=top;aspect=fixed;imageAspect=0;image=data:image/svg+xml,PHN2ZyB4bWxuczp4bGluaz0iaHR0cDovL3d3dy53My5vcmcvMTk5OS94bGluayIgeG1sbnM9Imh0dHA6Ly93d3cudzMub3JnLzIwMDAvc3ZnIiBoZWlnaHQ9IjIwMCIgd2lkdGg9IjIwMCIgdmVyc2lvbj0iMS4xIiB2aWV3Qm94PSIwIDAgMTAyNCAxMDI0IiBjbGFzcz0iaWNvbiI+PHBhdGggZD0iTTkyNi43MiA4MjkuNDRxMjguNjcyIDMyLjc2OCAzMS4yMzIgNTcuMzQ0dC0xOC45NDQgNDguMTI4cS0yNC41NzYgMjcuNjQ4LTU0LjI3MiAyNi4xMTJ0LTU3LjM0NC0yNC4wNjRsLTE2NC44NjQtMTU4LjcycS00Ni4wOCAzMC43Mi05OS44NCA0Ny42MTZ0LTExMy4xNTIgMTYuODk2cS04MC44OTYgMC0xNTEuNTUyLTMwLjcydC0xMjMuMzkyLTgzLjQ1Ni04Mi45NDQtMTIzLjM5Mi0zMC4yMDgtMTUxLjU1MnEwLTc5Ljg3MiAzMC4yMDgtMTUwLjUyOHQ4Mi45NDQtMTIzLjM5MiAxMjMuMzkyLTgzLjQ1NiAxNTEuNTUyLTMwLjcyIDE1MS41NTIgMzAuNzIgMTIzLjM5MiA4My40NTYgODMuNDU2IDEyMy4zOTIgMzAuNzIgMTUwLjUyOHEwIDYxLjQ0LTE3LjkyIDExNi43MzZ0LTQ5LjY2NCAxMDEuMzc2cTEzLjMxMiAxNC4zMzYgMzcuMzc2IDM4LjR0NDguMTI4IDQ4LjY0IDQ0LjU0NCA0NC4wMzJ6TTQ0OS41MzYgNzA1LjUzNnE1My4yNDggMCAxMDAuMzUyLTE5Ljk2OHQ4MS45Mi01NC43ODQgNTQuNzg0LTgxLjkyIDE5Ljk2OC0xMDAuMzUyLTE5Ljk2OC0xMDAuMzUyLTU0Ljc4NC04MS45Mi04MS45Mi01NC43ODQtMTAwLjM1Mi0xOS45NjgtOTkuODQgMTkuOTY4LTgxLjQwOCA1NC43ODQtNTUuMjk2IDgxLjkyLTIwLjQ4IDEwMC4zNTIgMjAuNDggMTAwLjM1MiA1NS4yOTYgODEuOTIgODEuNDA4IDU0Ljc4NCA5OS44NCAxOS45Njh6TTUxMiAzODRsMTI4IDAgMCAxMjgtMTI4IDAgMCAxMjgtMTI5LjAyNCAwIDAtMTI4LTEyNi45NzYgMCAwLTEyOCAxMjYuOTc2IDAgMC0xMjggMTI5LjAyNCAwIDAgMTI4eiIvPjwvc3ZnPg==;" parent="1" vertex="1">
          <mxGeometry x="993.66" y="-1435" width="20" height="20" as="geometry" />
        </mxCell>
        <mxCell id="FY5eDi_IWiPd35O_f7Xr-155" value="" style="shape=image;verticalLabelPosition=bottom;labelBackgroundColor=default;verticalAlign=top;aspect=fixed;imageAspect=0;image=data:image/svg+xml,PHN2ZyB4bWxuczp4bGluaz0iaHR0cDovL3d3dy53My5vcmcvMTk5OS94bGluayIgeG1sbnM9Imh0dHA6Ly93d3cudzMub3JnLzIwMDAvc3ZnIiBoZWlnaHQ9IjIwMCIgd2lkdGg9IjIwMCIgdmVyc2lvbj0iMS4xIiB2aWV3Qm94PSIwIDAgMTAyNCAxMDI0IiBjbGFzcz0iaWNvbiI+PHBhdGggZD0iTTkyNi43MiA4MjkuNDRxMjguNjcyIDMyLjc2OCAzMS4yMzIgNTcuMzQ0dC0xOC45NDQgNDguMTI4cS0yNC41NzYgMjcuNjQ4LTU0LjI3MiAyNi4xMTJ0LTU3LjM0NC0yNC4wNjRsLTE2NC44NjQtMTU4LjcycS00Ni4wOCAzMC43Mi05OS44NCA0Ny42MTZ0LTExMy4xNTIgMTYuODk2cS04MC44OTYgMC0xNTEuNTUyLTMwLjcydC0xMjMuMzkyLTgzLjQ1Ni04Mi45NDQtMTIzLjM5Mi0zMC4yMDgtMTUxLjU1MnEwLTc5Ljg3MiAzMC4yMDgtMTUwLjUyOHQ4Mi45NDQtMTIzLjM5MiAxMjMuMzkyLTgzLjQ1NiAxNTEuNTUyLTMwLjcyIDE1MS41NTIgMzAuNzIgMTIzLjM5MiA4My40NTYgODMuNDU2IDEyMy4zOTIgMzAuNzIgMTUwLjUyOHEwIDYxLjQ0LTE3LjkyIDExNi43MzZ0LTQ5LjY2NCAxMDEuMzc2cTEzLjMxMiAxNC4zMzYgMzcuMzc2IDM4LjR0NDguMTI4IDQ4LjY0IDQ0LjU0NCA0NC4wMzJ6TTQ0OS41MzYgNzA1LjUzNnE1My4yNDggMCAxMDAuMzUyLTE5Ljk2OHQ4MS45Mi01NC43ODQgNTQuNzg0LTgxLjkyIDE5Ljk2OC0xMDAuMzUyLTE5Ljk2OC0xMDAuMzUyLTU0Ljc4NC04MS45Mi04MS45Mi01NC43ODQtMTAwLjM1Mi0xOS45NjgtOTkuODQgMTkuOTY4LTgxLjQwOCA1NC43ODQtNTUuMjk2IDgxLjkyLTIwLjQ4IDEwMC4zNTIgMjAuNDggMTAwLjM1MiA1NS4yOTYgODEuOTIgODEuNDA4IDU0Ljc4NCA5OS44NCAxOS45Njh6TTUxMiAzODRsMTI4IDAgMCAxMjgtMTI4IDAgMCAxMjgtMTI5LjAyNCAwIDAtMTI4LTEyNi45NzYgMCAwLTEyOCAxMjYuOTc2IDAgMC0xMjggMTI5LjAyNCAwIDAgMTI4eiIvPjwvc3ZnPg==;" parent="1" vertex="1">
          <mxGeometry x="1216.34" y="-1435" width="20" height="20" as="geometry" />
        </mxCell>
      </root>
    </mxGraphModel>
  </diagram>
</mxfile>
